<?xml version="1.0" encoding="UTF-8" standalone="no"?>
<!-- Created with Inkscape (http://www.inkscape.org/) -->

<svg
   width="210mm"
   height="297mm"
   viewBox="0 0 210 297"
   version="1.1"
   id="svg912"
   inkscape:version="1.2.2 (b0a8486541, 2022-12-01)"
   sodipodi:docname="drawing-1.svg"
   xmlns:inkscape="http://www.inkscape.org/namespaces/inkscape"
   xmlns:sodipodi="http://sodipodi.sourceforge.net/DTD/sodipodi-0.dtd"
   xmlns="http://www.w3.org/2000/svg"
   xmlns:svg="http://www.w3.org/2000/svg">
  <sodipodi:namedview
     id="namedview914"
     pagecolor="#ffffff"
     bordercolor="#999999"
     borderopacity="1"
     inkscape:showpageshadow="0"
     inkscape:pageopacity="0"
     inkscape:pagecheckerboard="0"
     inkscape:deskcolor="#d1d1d1"
     inkscape:document-units="mm"
     showgrid="false"
     inkscape:zoom="1.5500842"
     inkscape:cx="334.49796"
     inkscape:cy="234.82596"
     inkscape:window-width="1873"
     inkscape:window-height="1050"
     inkscape:window-x="47"
     inkscape:window-y="30"
     inkscape:window-maximized="1"
     inkscape:current-layer="layer1" />
  <defs
     id="defs909">
    <clipPath
       clipPathUnits="userSpaceOnUse"
       id="clipPath50">
      <path
         d="M 0,497.969 H 1870.675 V 0 H 0 Z"
         id="path48" />
    </clipPath>
    <clipPath
       clipPathUnits="userSpaceOnUse"
       id="clipPath138">
      <path
         d="M 0,497.969 H 1870.675 V 0 H 0 Z"
         id="path136" />
    </clipPath>
    <clipPath
       clipPathUnits="userSpaceOnUse"
       id="clipPath228">
      <path
         d="M 0,515.055 H 1870.675 V 0 H 0 Z"
         id="path226" />
    </clipPath>
    <clipPath
       clipPathUnits="userSpaceOnUse"
       id="clipPath450">
      <path
         d="M 0,515.055 H 1870.675 V 0 H 0 Z"
         id="path448" />
    </clipPath>
  </defs>
  <g
     inkscape:label="Layer 1"
     inkscape:groupmode="layer"
     id="layer1">
    <g
       id="g2649"
       transform="matrix(0.3698423,0,0,0.3698423,152.06233,64.358282)">
      <g
         id="g12"
         transform="matrix(0.35277777,0,0,-0.35277777,39.609856,282.29004)">
        <path
           d="M 0,0 -14.135,-18.808 0,-37.616 14.133,-18.808 Z"
           style="fill:#ff5117;fill-opacity:1;fill-rule:nonzero;stroke:none"
           id="path14" />
      </g>
      <g
         id="g16"
         transform="matrix(0.35277777,0,0,-0.35277777,44.595176,288.92455)">
        <path
           d="M 0,0 23.29,3.307 19.984,-19.984 -3.307,-23.29 Z"
           style="fill:#ff5117;fill-opacity:1;fill-rule:nonzero;stroke:none"
           id="path18" />
      </g>
      <g
         id="g20"
         transform="matrix(0.35277777,0,0,-0.35277777,45.008026,300.95911)">
        <path
           d="M 0,0 18.808,-14.128 37.614,0 18.808,14.133 Z"
           style="fill:#ff5117;fill-opacity:1;fill-rule:nonzero;stroke:none"
           id="path22" />
      </g>
      <g
         id="g24"
         transform="matrix(0.35277777,0,0,-0.35277777,51.642336,305.94351)">
        <path
           d="m 0,0 3.307,-23.29 -23.291,3.306 -3.306,23.291 z"
           style="fill:#ff5117;fill-opacity:1;fill-rule:nonzero;stroke:none"
           id="path26" />
      </g>
      <g
         id="g28"
         transform="matrix(0.35277777,0,0,-0.35277777,44.592806,312.9931)">
        <path
           d="M 0,0 -14.131,-18.808 -28.262,0 -14.131,18.808 Z"
           style="fill:#ff5117;fill-opacity:1;fill-rule:nonzero;stroke:none"
           id="path30" />
      </g>
      <g
         id="g32"
         transform="matrix(0.35277777,0,0,-0.35277777,34.623946,312.99338)">
        <path
           d="m 0,0 -23.29,-3.307 3.306,23.291 23.291,3.306 z"
           style="fill:#ff5117;fill-opacity:1;fill-rule:nonzero;stroke:none"
           id="path34" />
      </g>
      <g
         id="g36"
         transform="matrix(0.35277777,0,0,-0.35277777,27.574206,305.94365)">
        <path
           d="M 0,0 -18.808,14.131 0,28.26 18.808,14.131 Z"
           style="fill:#ff5117;fill-opacity:1;fill-rule:nonzero;stroke:none"
           id="path38" />
      </g>
      <g
         id="g40"
         transform="matrix(0.35277777,0,0,-0.35277777,27.574206,295.97443)">
        <path
           d="M 0,0 -3.307,23.29 19.984,19.984 23.29,-3.307 Z"
           style="fill:#ff5117;fill-opacity:1;fill-rule:nonzero;stroke:none"
           id="path42" />
      </g>
      <g
         id="g44"
         transform="matrix(0.35277777,0,0,-0.35277777,-480.04153,402.91083)">
        <g
           id="g46"
           clip-path="url(#clipPath50)">
          <g
             id="g52"
             transform="translate(351.6885,288.7135)">
            <path
               d="m 0,0 c 0,1.17 0.777,1.95 1.946,1.95 h 7.207 c 1.17,0 1.951,-0.78 1.951,-1.95 v -128.57 c 0,-1.17 -0.781,-1.948 -1.951,-1.948 H 1.946 c -1.169,0 -1.946,0.778 -1.946,1.948 z"
               style="fill:#000000;fill-opacity:1;fill-rule:nonzero;stroke:none"
               id="path54" />
          </g>
          <g
             id="g56"
             transform="translate(384.8036,288.7135)">
            <path
               d="m 0,0 c 0,1.17 0.777,1.95 1.946,1.95 h 7.207 c 1.365,0 2.534,-0.391 3.315,-1.95 l 66.038,-108.897 h 0.586 V 0 c 0,1.17 0.777,1.95 1.946,1.95 h 7.207 c 1.17,0 1.949,-0.78 1.949,-1.95 v -128.57 c 0,-1.17 -0.779,-1.948 -1.949,-1.948 h -7.596 c -1.169,0 -2.337,0.389 -3.312,1.948 L 11.882,-19.482 H 11.104 V -128.57 c 0,-1.17 -0.781,-1.948 -1.951,-1.948 H 1.946 c -1.169,0 -1.946,0.778 -1.946,1.948 z"
               style="fill:#000000;fill-opacity:1;fill-rule:nonzero;stroke:none"
               id="path58" />
          </g>
          <g
             id="g60"
             transform="translate(497.0005,288.7135)">
            <path
               d="m 0,0 c 0,1.17 0.777,1.95 1.946,1.95 h 7.207 c 1.365,0 2.534,-0.391 3.315,-1.95 l 66.038,-108.897 h 0.586 V 0 c 0,1.17 0.777,1.95 1.946,1.95 h 7.207 c 1.17,0 1.951,-0.78 1.951,-1.95 v -128.57 c 0,-1.17 -0.781,-1.948 -1.951,-1.948 h -7.596 c -1.169,0 -2.337,0.389 -3.312,1.948 L 11.884,-19.482 h -0.78 V -128.57 c 0,-1.17 -0.781,-1.948 -1.951,-1.948 H 1.946 c -1.169,0 -1.946,0.778 -1.946,1.948 z"
               style="fill:#000000;fill-opacity:1;fill-rule:nonzero;stroke:none"
               id="path62" />
          </g>
          <g
             id="g64"
             transform="translate(607.4437,186.0487)">
            <path
               d="m 0,0 c -2.338,7.018 -3.896,15.589 -3.896,38.38 0,22.791 1.558,31.362 3.896,38.375 6.427,19.482 21.234,29.808 42.858,29.808 21.429,0 36.234,-10.326 42.661,-29.808 C 87.858,69.742 89.415,61.171 89.415,38.38 89.415,15.589 87.858,7.018 85.519,0 79.092,-19.478 64.287,-29.803 42.858,-29.803 21.234,-29.803 6.427,-19.478 0,0 M 74.806,73.64 C 69.935,88.251 59.223,96.042 42.858,96.042 26.3,96.042 15.584,88.251 10.714,73.64 8.962,68.378 7.402,59.807 7.402,38.38 c 0,-21.432 1.56,-30.003 3.312,-35.26 4.87,-14.611 15.586,-22.402 32.144,-22.402 16.365,0 27.077,7.791 31.948,22.402 1.754,5.257 3.311,13.828 3.311,35.26 0,21.427 -1.557,29.998 -3.311,35.26"
               style="fill:#000000;fill-opacity:1;fill-rule:nonzero;stroke:none"
               id="path66" />
          </g>
          <g
             id="g68"
             transform="translate(744.7778,158.1946)">
            <path
               d="m 0,0 c -1.17,0 -1.754,0.779 -2.145,1.948 l -43.83,127.792 c -0.778,1.753 0,2.728 1.363,2.728 h 6.819 c 1.752,0 2.338,-0.389 2.922,-1.95 L 3.507,18.507 h 0.389 l 37.403,112.011 c 0.585,1.561 1.167,1.95 2.726,1.95 h 7.014 c 1.364,0 2.143,-0.975 1.559,-2.728 L 8.961,1.948 C 8.571,0.779 7.793,0 6.623,0 Z"
               style="fill:#000000;fill-opacity:1;fill-rule:nonzero;stroke:none"
               id="path70" />
          </g>
          <g
             id="g72"
             transform="translate(831.07,288.7135)">
            <path
               d="M 0,0 C 0.389,1.17 1.17,1.95 2.339,1.95 H 9.352 C 10.716,1.95 11.3,1.17 11.691,0 l 45.974,-128.57 c 0.388,-1.17 -0.196,-1.948 -1.366,-1.948 h -7.596 c -1.364,0 -2.145,0.389 -2.534,1.948 l -11.687,32.532 h -57.664 l -11.687,-32.532 c -0.584,-1.559 -1.365,-1.948 -2.534,-1.948 H -45 c -1.169,0 -1.751,0.778 -1.362,1.948 z M 30.78,-85.326 6.039,-15.973 H 5.455 L -19.48,-85.326 Z"
               style="fill:#000000;fill-opacity:1;fill-rule:nonzero;stroke:none"
               id="path74" />
          </g>
          <g
             id="g76"
             transform="translate(894.7657,206.8954)">
            <path
               d="m 0,0 v 81.819 c 0,1.169 0.78,1.948 1.948,1.948 h 24.741 c 1.168,0 1.946,-0.779 1.946,-1.948 V -0.779 c 0,-15.78 8.768,-24.74 22.211,-24.74 13.246,0 22.012,8.96 22.012,24.74 v 82.598 c 0,1.169 0.779,1.948 1.948,1.948 h 24.739 c 1.17,0 1.95,-0.779 1.95,-1.948 V 0 c 0,-32.923 -21.039,-50.844 -50.649,-50.844 C 21.039,-50.844 0,-32.923 0,0"
               style="fill:#000000;fill-opacity:1;fill-rule:nonzero;stroke:none"
               id="path78" />
          </g>
          <g
             id="g80"
             transform="translate(1016.1191,288.7135)">
            <path
               d="m 0,0 c 0,1.17 0.78,1.95 1.946,1.95 h 24.743 c 1.168,0 1.948,-0.78 1.948,-1.95 v -103.829 c 0,-0.781 0.39,-1.17 1.17,-1.17 h 58.44 c 1.168,0 1.948,-0.78 1.948,-1.95 v -21.621 c 0,-1.17 -0.78,-1.948 -1.948,-1.948 H 1.946 C 0.78,-130.518 0,-129.74 0,-128.57 Z"
               style="fill:#000000;fill-opacity:1;fill-rule:nonzero;stroke:none"
               id="path82" />
          </g>
          <g
             id="g84"
             transform="translate(1118.3827,288.7135)">
            <path
               d="m 0,0 c 0,1.17 0.781,1.95 1.946,1.95 h 24.743 c 1.168,0 1.946,-0.78 1.946,-1.95 v -128.57 c 0,-1.17 -0.778,-1.948 -1.946,-1.948 H 1.946 c -1.165,0 -1.946,0.778 -1.946,1.948 z"
               style="fill:#000000;fill-opacity:1;fill-rule:nonzero;stroke:none"
               id="path86" />
          </g>
          <g
             id="g88"
             transform="translate(1167.4692,288.7135)">
            <path
               d="M 0,0 C 0,1.17 0.78,1.95 1.946,1.95 H 25.13 c 1.559,0 2.532,-0.586 3.116,-1.95 l 33.507,-75.585 h 0.78 L 95.454,0 c 0.586,1.364 1.561,1.95 3.118,1.95 h 22.793 c 1.168,0 1.946,-0.78 1.946,-1.95 v -128.57 c 0,-1.17 -0.778,-1.948 -1.946,-1.948 H 99.351 c -1.17,0 -1.947,0.778 -1.947,1.948 v 74.612 h -0.78 L 72.08,-109.872 c -0.781,-1.754 -1.95,-2.529 -3.704,-2.529 H 54.937 c -1.755,0 -2.925,0.775 -3.702,2.529 L 26.689,-53.958 H 25.91 v -74.612 c 0,-1.17 -0.78,-1.948 -1.949,-1.948 H 1.946 C 0.78,-130.518 0,-129.74 0,-128.57 Z"
               style="fill:#000000;fill-opacity:1;fill-rule:nonzero;stroke:none"
               id="path90" />
          </g>
          <g
             id="g92"
             transform="translate(1346.8729,288.7135)">
            <path
               d="m 0,0 c 0.389,1.17 1.17,1.95 2.534,1.95 h 24.544 c 1.365,0 2.143,-0.78 2.532,-1.95 l 44.805,-128.57 c 0.391,-1.17 0,-1.948 -1.362,-1.948 H 47.728 c -1.364,0 -2.143,0.584 -2.532,1.948 l -7.598,23.182 H -8.766 l -7.403,-23.182 c -0.39,-1.364 -1.166,-1.948 -2.531,-1.948 h -25.521 c -1.364,0 -1.754,0.778 -1.364,1.948 z M 29.805,-81.038 14.807,-34.676 H 14.221 L -0.777,-81.038 Z"
               style="fill:#000000;fill-opacity:1;fill-rule:nonzero;stroke:none"
               id="path94" />
          </g>
        </g>
      </g>
    </g>
    <g
       id="g2799"
       transform="matrix(0.34394531,0,0,0.34394531,-20.297343,108.46599)">
      <g
         id="g190"
         transform="matrix(0.35277777,0,0,-0.35277777,504.30149,50.097549)">
        <path
           d="M 0,0 -14.135,-18.808 0,-37.615 14.133,-18.808 Z"
           style="fill:#ff5117;fill-opacity:1;fill-rule:nonzero;stroke:none"
           id="path192" />
      </g>
      <g
         id="g194"
         transform="matrix(0.35277777,0,0,-0.35277777,509.28688,56.732064)">
        <path
           d="M 0,0 23.29,3.307 19.984,-19.984 -3.307,-23.29 Z"
           style="fill:#ff5117;fill-opacity:1;fill-rule:nonzero;stroke:none"
           id="path196" />
      </g>
      <g
         id="g198"
         transform="matrix(0.35277777,0,0,-0.35277777,509.69966,68.766619)">
        <path
           d="M 0,0 18.808,-14.127 37.615,0 18.808,14.133 Z"
           style="fill:#ff5117;fill-opacity:1;fill-rule:nonzero;stroke:none"
           id="path200" />
      </g>
      <g
         id="g202"
         transform="matrix(0.35277777,0,0,-0.35277777,516.33397,73.751016)">
        <path
           d="m 0,0 3.307,-23.29 -23.291,3.306 -3.306,23.291 z"
           style="fill:#ff5117;fill-opacity:1;fill-rule:nonzero;stroke:none"
           id="path204" />
      </g>
      <g
         id="g206"
         transform="matrix(0.35277777,0,0,-0.35277777,509.28448,80.800574)">
        <path
           d="M 0,0 -14.133,-18.808 -28.262,0 -14.133,18.808 Z"
           style="fill:#ff5117;fill-opacity:1;fill-rule:nonzero;stroke:none"
           id="path208" />
      </g>
      <g
         id="g210"
         transform="matrix(0.35277777,0,0,-0.35277777,499.31561,80.800891)">
        <path
           d="m 0,0 -23.29,-3.307 3.306,23.291 23.291,3.306 z"
           style="fill:#ff5117;fill-opacity:1;fill-rule:nonzero;stroke:none"
           id="path212" />
      </g>
      <g
         id="g214"
         transform="matrix(0.35277777,0,0,-0.35277777,492.26588,73.751157)">
        <path
           d="M 0,0 -18.808,14.131 0,28.26 18.808,14.131 Z"
           style="fill:#ff5117;fill-opacity:1;fill-rule:nonzero;stroke:none"
           id="path216" />
      </g>
      <g
         id="g218"
         transform="matrix(0.35277777,0,0,-0.35277777,492.26588,63.781939)">
        <path
           d="M 0,0 -3.307,23.29 19.984,19.984 23.29,-3.307 Z"
           style="fill:#ff5117;fill-opacity:1;fill-rule:nonzero;stroke:none"
           id="path220" />
      </g>
      <g
         id="g222"
         transform="matrix(0.35277777,0,0,-0.35277777,-15.349299,184.38791)">
        <g
           id="g224"
           clip-path="url(#clipPath228)">
          <g
             id="g230"
             transform="translate(351.6885,327.4619)">
            <path
               d="m 0,0 c 0,1.17 0.777,1.95 1.946,1.95 h 7.208 c 1.169,0 1.949,-0.78 1.949,-1.95 v -128.57 c 0,-1.17 -0.78,-1.948 -1.949,-1.948 H 1.946 c -1.169,0 -1.946,0.778 -1.946,1.948 z"
               style="fill:#000000;fill-opacity:1;fill-rule:nonzero;stroke:none"
               id="path232" />
          </g>
          <g
             id="g234"
             transform="translate(384.8033,327.4619)">
            <path
               d="m 0,0 c 0,1.17 0.777,1.95 1.946,1.95 h 7.208 c 1.364,0 2.533,-0.391 3.314,-1.95 l 66.038,-108.897 h 0.586 V 0 c 0,1.17 0.777,1.95 1.946,1.95 h 7.207 c 1.17,0 1.949,-0.78 1.949,-1.95 v -128.57 c 0,-1.17 -0.779,-1.948 -1.949,-1.948 h -7.596 c -1.17,0 -2.337,0.389 -3.312,1.948 L 11.882,-19.482 H 11.103 V -128.57 c 0,-1.17 -0.78,-1.948 -1.949,-1.948 H 1.946 c -1.169,0 -1.946,0.778 -1.946,1.948 z"
               style="fill:#000000;fill-opacity:1;fill-rule:nonzero;stroke:none"
               id="path236" />
          </g>
          <g
             id="g238"
             transform="translate(497.0003,327.4619)">
            <path
               d="m 0,0 c 0,1.17 0.777,1.95 1.946,1.95 h 7.207 c 1.365,0 2.534,-0.391 3.315,-1.95 l 66.038,-108.897 h 0.586 V 0 c 0,1.17 0.777,1.95 1.946,1.95 h 7.207 c 1.17,0 1.95,-0.78 1.95,-1.95 v -128.57 c 0,-1.17 -0.78,-1.948 -1.95,-1.948 h -7.596 c -1.17,0 -2.337,0.389 -3.312,1.948 L 11.884,-19.482 H 11.103 V -128.57 c 0,-1.17 -0.78,-1.948 -1.95,-1.948 H 1.946 c -1.169,0 -1.946,0.778 -1.946,1.948 z"
               style="fill:#000000;fill-opacity:1;fill-rule:nonzero;stroke:none"
               id="path240" />
          </g>
          <g
             id="g242"
             transform="translate(607.4434,224.7973)">
            <path
               d="m 0,0 c -2.337,7.018 -3.896,15.589 -3.896,38.38 0,22.791 1.559,31.362 3.896,38.374 6.427,19.482 21.234,29.809 42.858,29.809 21.429,0 36.234,-10.327 42.661,-29.809 C 87.858,69.742 89.415,61.171 89.415,38.38 89.415,15.589 87.858,7.018 85.519,0 79.092,-19.478 64.287,-29.803 42.858,-29.803 21.234,-29.803 6.427,-19.478 0,0 M 74.806,73.64 C 69.935,88.251 59.222,96.042 42.858,96.042 26.3,96.042 15.584,88.251 10.714,73.64 8.961,68.378 7.402,59.806 7.402,38.38 c 0,-21.432 1.559,-30.003 3.312,-35.26 4.87,-14.611 15.586,-22.402 32.144,-22.402 16.364,0 27.077,7.791 31.948,22.402 1.754,5.257 3.311,13.828 3.311,35.26 0,21.426 -1.557,29.998 -3.311,35.26"
               style="fill:#000000;fill-opacity:1;fill-rule:nonzero;stroke:none"
               id="path244" />
          </g>
          <g
             id="g246"
             transform="translate(744.7772,196.9432)">
            <path
               d="M 0,0 C -1.17,0 -1.754,0.779 -2.145,1.948 L -45.974,129.74 c -0.779,1.753 0,2.728 1.362,2.728 h 6.82 c 1.751,0 2.335,-0.389 2.921,-1.95 L 3.507,18.507 h 0.389 l 37.403,112.011 c 0.584,1.561 1.167,1.95 2.726,1.95 h 7.014 c 1.364,0 2.143,-0.975 1.559,-2.728 L 8.962,1.948 C 8.571,0.779 7.793,0 6.623,0 Z"
               style="fill:#000000;fill-opacity:1;fill-rule:nonzero;stroke:none"
               id="path248" />
          </g>
          <g
             id="g250"
             transform="translate(831.0694,327.4619)">
            <path
               d="M 0,0 C 0.389,1.17 1.17,1.95 2.339,1.95 H 9.352 C 10.716,1.95 11.3,1.17 11.689,0 l 45.976,-128.57 c 0.388,-1.17 -0.196,-1.948 -1.366,-1.948 h -7.596 c -1.364,0 -2.145,0.389 -2.534,1.948 l -11.687,32.532 h -57.664 l -11.687,-32.532 c -0.584,-1.559 -1.365,-1.948 -2.534,-1.948 H -45 c -1.169,0 -1.751,0.778 -1.362,1.948 z M 30.78,-85.326 6.039,-15.973 H 5.455 L -19.48,-85.326 Z"
               style="fill:#000000;fill-opacity:1;fill-rule:nonzero;stroke:none"
               id="path252" />
          </g>
          <g
             id="g254"
             transform="translate(894.765,245.6439)">
            <path
               d="m 0,0 v 81.819 c 0,1.169 0.78,1.948 1.948,1.948 h 24.741 c 1.168,0 1.946,-0.779 1.946,-1.948 V -0.779 c 0,-15.78 8.768,-24.74 22.211,-24.74 13.246,0 22.012,8.96 22.012,24.74 v 82.598 c 0,1.169 0.779,1.948 1.948,1.948 h 24.739 c 1.17,0 1.95,-0.779 1.95,-1.948 V 0 c 0,-32.923 -21.039,-50.844 -50.649,-50.844 C 21.039,-50.844 0,-32.923 0,0"
               style="fill:#000000;fill-opacity:1;fill-rule:nonzero;stroke:none"
               id="path256" />
          </g>
          <g
             id="g258"
             transform="translate(1016.1182,327.4619)">
            <path
               d="m 0,0 c 0,1.17 0.78,1.95 1.946,1.95 h 24.743 c 1.168,0 1.948,-0.78 1.948,-1.95 v -103.829 c 0,-0.781 0.389,-1.17 1.17,-1.17 h 58.44 c 1.168,0 1.948,-0.78 1.948,-1.95 v -21.621 c 0,-1.17 -0.78,-1.948 -1.948,-1.948 H 1.946 C 0.78,-130.518 0,-129.74 0,-128.57 Z"
               style="fill:#000000;fill-opacity:1;fill-rule:nonzero;stroke:none"
               id="path260" />
          </g>
          <g
             id="g262"
             transform="translate(1118.3817,327.4619)">
            <path
               d="m 0,0 c 0,1.17 0.78,1.95 1.946,1.95 h 24.743 c 1.168,0 1.946,-0.78 1.946,-1.95 v -128.57 c 0,-1.17 -0.778,-1.948 -1.946,-1.948 H 1.946 C 0.78,-130.518 0,-129.74 0,-128.57 Z"
               style="fill:#000000;fill-opacity:1;fill-rule:nonzero;stroke:none"
               id="path264" />
          </g>
          <g
             id="g266"
             transform="translate(1167.4681,327.4619)">
            <path
               d="M 0,0 C 0,1.17 0.779,1.95 1.946,1.95 H 25.13 c 1.559,0 2.532,-0.586 3.116,-1.95 l 33.507,-75.585 h 0.78 L 95.454,0 c 0.586,1.364 1.561,1.95 3.116,1.95 h 22.795 c 1.167,0 1.946,-0.78 1.946,-1.95 v -128.57 c 0,-1.17 -0.779,-1.948 -1.946,-1.948 H 99.351 c -1.17,0 -1.947,0.778 -1.947,1.948 v 74.612 h -0.78 l -24.545,-55.914 c -0.78,-1.753 -1.949,-2.528 -3.703,-2.528 H 54.935 c -1.753,0 -2.923,0.775 -3.7,2.528 L 26.689,-53.958 H 25.91 v -74.612 c 0,-1.17 -0.78,-1.948 -1.949,-1.948 H 1.946 c -1.167,0 -1.946,0.778 -1.946,1.948 z"
               style="fill:#000000;fill-opacity:1;fill-rule:nonzero;stroke:none"
               id="path268" />
          </g>
          <g
             id="g270"
             transform="translate(1346.8715,327.4619)">
            <path
               d="M 0,0 C 0.389,1.17 1.17,1.95 2.534,1.95 H 27.08 c 1.364,0 2.141,-0.78 2.53,-1.95 l 44.805,-128.57 c 0.391,-1.17 0,-1.948 -1.36,-1.948 H 47.728 c -1.364,0 -2.143,0.584 -2.53,1.948 l -7.6,23.182 H -8.766 l -7.403,-23.182 c -0.39,-1.364 -1.166,-1.948 -2.531,-1.948 h -25.521 c -1.364,0 -1.753,0.778 -1.364,1.948 z M 29.805,-81.038 14.807,-34.676 H 14.221 L -0.777,-81.038 Z"
               style="fill:#000000;fill-opacity:1;fill-rule:nonzero;stroke:none"
               id="path272" />
          </g>
          <g
             id="g274"
             transform="translate(476.7016,151.7709)">
            <path
               d="m 0,0 c 0,5.829 0.343,8.033 0.882,9.698 1.665,4.996 5.29,7.446 10.531,7.446 4.555,0 8.131,-2.107 10.041,-6.172 0.098,-0.245 0.098,-0.49 -0.147,-0.637 L 19.69,9.552 C 19.445,9.404 19.2,9.502 19.054,9.747 17.535,12.588 15.185,14.498 11.413,14.498 7.348,14.498 4.85,12.588 3.576,8.964 3.135,7.642 2.841,5.584 2.841,0 c 0,-5.584 0.294,-7.641 0.735,-8.963 1.274,-3.625 3.772,-5.535 7.837,-5.535 3.772,0 6.122,1.91 7.641,4.751 0.146,0.245 0.391,0.343 0.636,0.196 l 1.617,-0.784 c 0.245,-0.146 0.245,-0.392 0.147,-0.637 -1.91,-4.065 -5.486,-6.172 -10.041,-6.172 -5.241,0 -8.866,2.45 -10.531,7.446 C 0.343,-8.032 0,-5.828 0,0"
               style="fill:#000000;fill-opacity:1;fill-rule:nonzero;stroke:none"
               id="path276" />
          </g>
          <g
             id="g278"
             transform="translate(505.3568,167.935)">
            <path
               d="m 0,0 c 0,0.294 0.195,0.489 0.489,0.489 h 19.054 c 0.294,0 0.49,-0.195 0.49,-0.489 v -1.666 c 0,-0.294 -0.196,-0.489 -0.49,-0.489 H 3.086 c -0.196,0 -0.294,-0.098 -0.294,-0.294 v -11.854 c 0,-0.196 0.098,-0.294 0.294,-0.294 h 14.155 c 0.294,0 0.489,-0.195 0.489,-0.489 v -1.666 c 0,-0.294 -0.195,-0.489 -0.489,-0.489 H 3.086 c -0.196,0 -0.294,-0.099 -0.294,-0.294 v -12.344 c 0,-0.195 0.098,-0.294 0.294,-0.294 h 16.457 c 0.294,0 0.49,-0.195 0.49,-0.489 v -1.665 c 0,-0.294 -0.196,-0.49 -0.49,-0.49 H 0.489 c -0.294,0 -0.489,0.196 -0.489,0.49 z"
               style="fill:#000000;fill-opacity:1;fill-rule:nonzero;stroke:none"
               id="path280" />
          </g>
          <g
             id="g282"
             transform="translate(532.5922,167.935)">
            <path
               d="M 0,0 C 0,0.294 0.195,0.489 0.489,0.489 H 2.302 C 2.645,0.489 2.938,0.392 3.135,0 l 16.604,-27.381 h 0.147 V 0 c 0,0.294 0.196,0.489 0.49,0.489 h 1.811 c 0.294,0 0.491,-0.195 0.491,-0.489 v -32.327 c 0,-0.294 -0.197,-0.49 -0.491,-0.49 h -1.91 c -0.294,0 -0.587,0.097 -0.832,0.49 L 2.987,-4.898 H 2.792 v -27.429 c 0,-0.294 -0.196,-0.49 -0.49,-0.49 H 0.489 c -0.294,0 -0.489,0.196 -0.489,0.49 z"
               style="fill:#000000;fill-opacity:1;fill-rule:nonzero;stroke:none"
               id="path284" />
          </g>
          <g
             id="g286"
             transform="translate(571.8256,135.1176)">
            <path
               d="m 0,0 c -0.294,0 -0.489,0.196 -0.489,0.49 v 29.878 c 0,0.196 -0.099,0.294 -0.294,0.294 h -9.601 c -0.294,0 -0.49,0.195 -0.49,0.489 v 1.666 c 0,0.294 0.196,0.49 0.49,0.49 h 22.58 c 0.294,0 0.491,-0.196 0.491,-0.49 v -1.666 c 0,-0.294 -0.197,-0.489 -0.491,-0.489 h -9.6 C 2.4,30.662 2.302,30.564 2.302,30.368 V 0.49 C 2.302,0.196 2.106,0 1.812,0 Z"
               style="fill:#000000;fill-opacity:1;fill-rule:nonzero;stroke:none"
               id="path288" />
          </g>
          <g
             id="g290"
             transform="translate(609.1986,159.2162)">
            <path
               d="m 0,0 c 0,4.163 -2.645,6.563 -7.396,6.563 h -8.522 c -0.196,0 -0.294,-0.097 -0.294,-0.293 V -6.27 c 0,-0.196 0.098,-0.293 0.294,-0.293 h 8.522 C -2.645,-6.563 0,-4.213 0,0 m 0.735,-24.099 c -0.294,0 -0.441,0.098 -0.588,0.441 l -7.004,14.45 h -0.49 -8.571 c -0.196,0 -0.294,-0.099 -0.294,-0.294 v -14.106 c 0,-0.294 -0.196,-0.491 -0.49,-0.491 h -1.813 c -0.294,0 -0.489,0.197 -0.489,0.491 V 8.719 c 0,0.294 0.195,0.489 0.489,0.489 h 11.168 c 6.27,0 10.139,-3.526 10.139,-9.208 0,-4.604 -2.547,-7.788 -6.808,-8.816 L 3.233,-23.56 c 0.196,-0.294 0.049,-0.539 -0.245,-0.539 z"
               style="fill:#000000;fill-opacity:1;fill-rule:nonzero;stroke:none"
               id="path292" />
          </g>
          <g
             id="g294"
             transform="translate(638.6381,160.6362)">
            <path
               d="m 0,0 c -1.225,3.674 -3.918,5.633 -8.032,5.633 -4.164,0 -6.858,-1.959 -8.082,-5.633 -0.442,-1.322 -0.833,-3.478 -0.833,-8.865 0,-5.388 0.391,-7.543 0.833,-8.865 1.224,-3.674 3.918,-5.633 8.082,-5.633 4.114,0 6.807,1.959 8.032,5.633 0.441,1.322 0.833,3.477 0.833,8.865 C 0.833,-3.478 0.441,-1.322 0,0 m -18.809,-18.515 c -0.587,1.764 -0.979,3.919 -0.979,9.65 0,5.73 0.392,7.886 0.979,9.649 1.617,4.899 5.339,7.494 10.777,7.494 5.387,0 9.11,-2.595 10.726,-7.494 0.588,-1.763 0.98,-3.919 0.98,-9.649 0,-5.731 -0.392,-7.886 -0.98,-9.65 -1.616,-4.897 -5.339,-7.494 -10.726,-7.494 -5.438,0 -9.16,2.597 -10.777,7.494"
               style="fill:#000000;fill-opacity:1;fill-rule:nonzero;stroke:none"
               id="path296" />
          </g>
          <g
             id="g298"
             transform="translate(665.2357,137.7621)">
            <path
               d="m 0,0 h 7.444 c 4.311,0 7.152,1.519 8.327,5.046 0.54,1.616 0.784,3.33 0.784,8.963 0,5.633 -0.244,7.347 -0.784,8.964 -1.175,3.526 -4.016,5.045 -8.327,5.045 H 0 c -0.196,0 -0.294,-0.098 -0.294,-0.294 V 0.294 C -0.294,0.099 -0.196,0 0,0 m -3.086,30.173 c 0,0.294 0.195,0.489 0.489,0.489 H 7.837 c 5.534,0 9.159,-2.204 10.628,-6.759 0.637,-1.96 0.931,-3.821 0.931,-9.894 0,-6.073 -0.294,-7.935 -0.931,-9.894 -1.469,-4.555 -5.094,-6.76 -10.628,-6.76 H -2.597 c -0.294,0 -0.489,0.197 -0.489,0.491 z"
               style="fill:#000000;fill-opacity:1;fill-rule:nonzero;stroke:none"
               id="path300" />
          </g>
          <g
             id="g302"
             transform="translate(692.5199,167.935)">
            <path
               d="m 0,0 c 0,0.294 0.195,0.489 0.489,0.489 h 19.054 c 0.294,0 0.49,-0.195 0.49,-0.489 v -1.666 c 0,-0.294 -0.196,-0.489 -0.49,-0.489 H 3.086 c -0.196,0 -0.294,-0.098 -0.294,-0.294 v -11.854 c 0,-0.196 0.098,-0.294 0.294,-0.294 h 14.155 c 0.294,0 0.489,-0.195 0.489,-0.489 v -1.666 c 0,-0.294 -0.195,-0.489 -0.489,-0.489 H 3.086 c -0.196,0 -0.294,-0.099 -0.294,-0.294 v -12.344 c 0,-0.195 0.098,-0.294 0.294,-0.294 h 16.457 c 0.294,0 0.49,-0.195 0.49,-0.489 v -1.665 c 0,-0.294 -0.196,-0.49 -0.49,-0.49 H 0.489 c -0.294,0 -0.489,0.196 -0.489,0.49 z"
               style="fill:#000000;fill-opacity:1;fill-rule:nonzero;stroke:none"
               id="path304" />
          </g>
          <g
             id="g306"
             transform="translate(731.8031,167.935)">
            <path
               d="m 0,0 c 0,0.294 0.195,0.489 0.489,0.489 h 19.054 c 0.294,0 0.49,-0.195 0.49,-0.489 v -1.666 c 0,-0.294 -0.196,-0.489 -0.49,-0.489 H 3.086 c -0.196,0 -0.294,-0.098 -0.294,-0.294 v -11.854 c 0,-0.196 0.098,-0.294 0.294,-0.294 h 14.155 c 0.294,0 0.489,-0.195 0.489,-0.489 v -1.666 c 0,-0.294 -0.195,-0.489 -0.489,-0.489 H 3.086 c -0.196,0 -0.294,-0.099 -0.294,-0.294 v -12.344 c 0,-0.195 0.098,-0.294 0.294,-0.294 h 16.457 c 0.294,0 0.49,-0.195 0.49,-0.489 v -1.665 c 0,-0.294 -0.196,-0.49 -0.49,-0.49 H 0.489 c -0.294,0 -0.489,0.196 -0.489,0.49 z"
               style="fill:#000000;fill-opacity:1;fill-rule:nonzero;stroke:none"
               id="path308" />
          </g>
          <g
             id="g310"
             transform="translate(759.0385,167.935)">
            <path
               d="M 0,0 C 0,0.294 0.195,0.489 0.489,0.489 H 2.351 C 2.693,0.489 2.938,0.343 3.086,0 L 13.91,-23.854 h 0.196 L 24.686,0 c 0.147,0.343 0.392,0.489 0.686,0.489 h 1.91 c 0.294,0 0.489,-0.195 0.489,-0.489 v -32.327 c 0,-0.294 -0.195,-0.49 -0.489,-0.49 H 25.47 c -0.294,0 -0.491,0.196 -0.491,0.49 V -6.27 h -0.146 l -9.601,-21.111 c -0.195,-0.391 -0.391,-0.538 -0.881,-0.538 h -0.98 c -0.44,0 -0.637,0.147 -0.832,0.538 L 2.938,-6.27 H 2.792 v -26.057 c 0,-0.294 -0.196,-0.49 -0.49,-0.49 H 0.489 c -0.294,0 -0.489,0.196 -0.489,0.49 z"
               style="fill:#000000;fill-opacity:1;fill-rule:nonzero;stroke:none"
               id="path312" />
          </g>
          <g
             id="g314"
             transform="translate(815.0726,158.9711)">
            <path
               d="m 0,0 c 0,4.262 -2.645,6.809 -7.543,6.809 h -8.424 c -0.196,0 -0.294,-0.098 -0.294,-0.294 V -6.466 c 0,-0.195 0.098,-0.293 0.294,-0.293 h 8.424 C -2.645,-6.759 0,-4.262 0,0 m -18.563,-23.854 c -0.294,0 -0.49,0.197 -0.49,0.491 V 8.964 c 0,0.294 0.196,0.489 0.49,0.489 H -7.444 C -1.077,9.453 2.792,5.829 2.792,0 c 0,-5.828 -3.869,-9.404 -10.236,-9.404 h -8.523 c -0.196,0 -0.294,-0.098 -0.294,-0.294 v -13.665 c 0,-0.294 -0.196,-0.491 -0.49,-0.491 z"
               style="fill:#000000;fill-opacity:1;fill-rule:nonzero;stroke:none"
               id="path316" />
          </g>
          <g
             id="g318"
             transform="translate(843.6781,159.2162)">
            <path
               d="m 0,0 c 0,4.163 -2.645,6.563 -7.396,6.563 h -8.522 c -0.196,0 -0.294,-0.097 -0.294,-0.293 V -6.27 c 0,-0.196 0.098,-0.293 0.294,-0.293 h 8.522 C -2.645,-6.563 0,-4.213 0,0 m 0.735,-24.099 c -0.294,0 -0.441,0.098 -0.588,0.441 l -7.004,14.45 h -0.49 -8.571 c -0.196,0 -0.294,-0.099 -0.294,-0.294 v -14.106 c 0,-0.294 -0.196,-0.491 -0.49,-0.491 h -1.813 c -0.294,0 -0.489,0.197 -0.489,0.491 V 8.719 c 0,0.294 0.195,0.489 0.489,0.489 h 11.168 c 6.27,0 10.139,-3.526 10.139,-9.208 0,-4.604 -2.547,-7.788 -6.809,-8.816 l 7.25,-14.744 c 0.196,-0.294 0.049,-0.539 -0.245,-0.539 z"
               style="fill:#000000;fill-opacity:1;fill-rule:nonzero;stroke:none"
               id="path320" />
          </g>
          <g
             id="g322"
             transform="translate(854.7992,167.935)">
            <path
               d="m 0,0 c 0,0.294 0.195,0.489 0.489,0.489 h 19.054 c 0.294,0 0.49,-0.195 0.49,-0.489 v -1.666 c 0,-0.294 -0.196,-0.489 -0.49,-0.489 H 3.086 c -0.196,0 -0.294,-0.098 -0.294,-0.294 v -11.854 c 0,-0.196 0.098,-0.294 0.294,-0.294 h 14.155 c 0.294,0 0.489,-0.195 0.489,-0.489 v -1.666 c 0,-0.294 -0.195,-0.489 -0.489,-0.489 H 3.086 c -0.196,0 -0.294,-0.099 -0.294,-0.294 v -12.344 c 0,-0.195 0.098,-0.294 0.294,-0.294 h 16.457 c 0.294,0 0.49,-0.195 0.49,-0.489 v -1.665 c 0,-0.294 -0.196,-0.49 -0.49,-0.49 H 0.489 c -0.294,0 -0.489,0.196 -0.489,0.49 z"
               style="fill:#000000;fill-opacity:1;fill-rule:nonzero;stroke:none"
               id="path324" />
          </g>
          <g
             id="g326"
             transform="translate(882.0336,167.935)">
            <path
               d="M 0,0 C 0,0.294 0.195,0.489 0.489,0.489 H 2.302 C 2.645,0.489 2.938,0.392 3.135,0 l 16.604,-27.381 h 0.147 V 0 c 0,0.294 0.196,0.489 0.49,0.489 h 1.811 c 0.294,0 0.491,-0.195 0.491,-0.489 v -32.327 c 0,-0.294 -0.197,-0.49 -0.491,-0.49 h -1.91 c -0.294,0 -0.587,0.097 -0.832,0.49 L 2.987,-4.898 H 2.792 v -27.429 c 0,-0.294 -0.196,-0.49 -0.49,-0.49 H 0.489 c -0.294,0 -0.489,0.196 -0.489,0.49 z"
               style="fill:#000000;fill-opacity:1;fill-rule:nonzero;stroke:none"
               id="path328" />
          </g>
          <g
             id="g330"
             transform="translate(917.0062,137.7621)">
            <path
               d="m 0,0 h 7.444 c 4.311,0 7.152,1.519 8.327,5.046 0.54,1.616 0.784,3.33 0.784,8.963 0,5.633 -0.244,7.347 -0.784,8.964 -1.175,3.526 -4.016,5.045 -8.327,5.045 H 0 c -0.196,0 -0.294,-0.098 -0.294,-0.294 V 0.294 C -0.294,0.099 -0.196,0 0,0 m -3.086,30.173 c 0,0.294 0.195,0.489 0.489,0.489 H 7.837 c 5.534,0 9.159,-2.204 10.628,-6.759 0.637,-1.96 0.931,-3.821 0.931,-9.894 0,-6.073 -0.294,-7.935 -0.931,-9.894 -1.469,-4.555 -5.094,-6.76 -10.628,-6.76 H -2.597 c -0.294,0 -0.489,0.197 -0.489,0.491 z"
               style="fill:#000000;fill-opacity:1;fill-rule:nonzero;stroke:none"
               id="path332" />
          </g>
          <g
             id="g334"
             transform="translate(944.2904,167.935)">
            <path
               d="m 0,0 c 0,0.294 0.195,0.489 0.489,0.489 h 1.813 c 0.294,0 0.49,-0.195 0.49,-0.489 v -32.327 c 0,-0.294 -0.196,-0.49 -0.49,-0.49 H 0.489 c -0.294,0 -0.489,0.196 -0.489,0.49 z"
               style="fill:#000000;fill-opacity:1;fill-rule:nonzero;stroke:none"
               id="path336" />
          </g>
          <g
             id="g338"
             transform="translate(956.2904,167.935)">
            <path
               d="M 0,0 C 0,0.294 0.195,0.489 0.489,0.489 H 2.351 C 2.693,0.489 2.938,0.343 3.086,0 L 13.91,-23.854 h 0.196 L 24.686,0 c 0.147,0.343 0.392,0.489 0.686,0.489 h 1.91 c 0.294,0 0.489,-0.195 0.489,-0.489 v -32.327 c 0,-0.294 -0.195,-0.49 -0.489,-0.49 H 25.47 c -0.294,0 -0.491,0.196 -0.491,0.49 V -6.27 h -0.146 l -9.601,-21.111 c -0.195,-0.391 -0.391,-0.538 -0.881,-0.538 h -0.98 c -0.44,0 -0.637,0.147 -0.832,0.538 L 2.938,-6.27 H 2.792 v -26.057 c 0,-0.294 -0.196,-0.49 -0.49,-0.49 H 0.489 c -0.294,0 -0.489,0.196 -0.489,0.49 z"
               style="fill:#000000;fill-opacity:1;fill-rule:nonzero;stroke:none"
               id="path340" />
          </g>
          <g
             id="g342"
             transform="translate(993.2728,167.935)">
            <path
               d="m 0,0 c 0,0.294 0.195,0.489 0.489,0.489 h 1.813 c 0.294,0 0.49,-0.195 0.49,-0.489 v -32.327 c 0,-0.294 -0.196,-0.49 -0.49,-0.49 H 0.489 c -0.294,0 -0.489,0.196 -0.489,0.49 z"
               style="fill:#000000;fill-opacity:1;fill-rule:nonzero;stroke:none"
               id="path344" />
          </g>
          <g
             id="g346"
             transform="translate(1005.2728,167.935)">
            <path
               d="m 0,0 c 0,0.294 0.195,0.489 0.489,0.489 h 19.054 c 0.294,0 0.49,-0.195 0.49,-0.489 v -1.666 c 0,-0.294 -0.196,-0.489 -0.49,-0.489 H 3.086 c -0.196,0 -0.294,-0.098 -0.294,-0.294 v -11.854 c 0,-0.196 0.098,-0.294 0.294,-0.294 h 14.155 c 0.294,0 0.489,-0.195 0.489,-0.489 v -1.666 c 0,-0.294 -0.195,-0.489 -0.489,-0.489 H 3.086 c -0.196,0 -0.294,-0.099 -0.294,-0.294 v -12.344 c 0,-0.195 0.098,-0.294 0.294,-0.294 h 16.457 c 0.294,0 0.49,-0.195 0.49,-0.489 v -1.665 c 0,-0.294 -0.196,-0.49 -0.49,-0.49 H 0.489 c -0.294,0 -0.489,0.196 -0.489,0.49 z"
               style="fill:#000000;fill-opacity:1;fill-rule:nonzero;stroke:none"
               id="path348" />
          </g>
          <g
             id="g350"
             transform="translate(1032.5082,167.935)">
            <path
               d="M 0,0 C 0,0.294 0.195,0.489 0.489,0.489 H 2.302 C 2.645,0.489 2.938,0.392 3.135,0 l 16.604,-27.381 h 0.147 V 0 c 0,0.294 0.196,0.489 0.49,0.489 h 1.811 c 0.294,0 0.491,-0.195 0.491,-0.489 v -32.327 c 0,-0.294 -0.197,-0.49 -0.491,-0.49 h -1.91 c -0.294,0 -0.587,0.097 -0.832,0.49 L 2.987,-4.898 H 2.792 v -27.429 c 0,-0.294 -0.196,-0.49 -0.49,-0.49 H 0.489 c -0.294,0 -0.489,0.196 -0.489,0.49 z"
               style="fill:#000000;fill-opacity:1;fill-rule:nonzero;stroke:none"
               id="path352" />
          </g>
          <g
             id="g354"
             transform="translate(1071.7416,135.1176)">
            <path
               d="m 0,0 c -0.294,0 -0.489,0.196 -0.489,0.49 v 29.878 c 0,0.196 -0.099,0.294 -0.294,0.294 h -9.601 c -0.294,0 -0.49,0.195 -0.49,0.489 v 1.666 c 0,0.294 0.196,0.49 0.49,0.49 h 22.58 c 0.294,0 0.491,-0.196 0.491,-0.49 v -1.666 c 0,-0.294 -0.197,-0.489 -0.491,-0.489 h -9.6 C 2.4,30.662 2.302,30.564 2.302,30.368 V 0.49 C 2.302,0.196 2.106,0 1.812,0 Z"
               style="fill:#000000;fill-opacity:1;fill-rule:nonzero;stroke:none"
               id="path356" />
          </g>
          <g
             id="g358"
             transform="translate(1107.3031,160.6362)">
            <path
               d="m 0,0 c -1.225,3.674 -3.918,5.633 -8.032,5.633 -4.164,0 -6.858,-1.959 -8.082,-5.633 -0.442,-1.322 -0.833,-3.478 -0.833,-8.865 0,-5.388 0.391,-7.543 0.833,-8.865 1.224,-3.674 3.918,-5.633 8.082,-5.633 4.114,0 6.807,1.959 8.032,5.633 0.441,1.322 0.833,3.477 0.833,8.865 C 0.833,-3.478 0.441,-1.322 0,0 m -18.809,-18.515 c -0.587,1.764 -0.979,3.919 -0.979,9.65 0,5.73 0.392,7.886 0.979,9.649 1.617,4.899 5.339,7.494 10.777,7.494 5.387,0 9.11,-2.595 10.726,-7.494 0.588,-1.763 0.98,-3.919 0.98,-9.649 0,-5.731 -0.392,-7.886 -0.98,-9.65 -1.616,-4.897 -5.339,-7.494 -10.726,-7.494 -5.438,0 -9.16,2.597 -10.777,7.494"
               style="fill:#000000;fill-opacity:1;fill-rule:nonzero;stroke:none"
               id="path360" />
          </g>
          <g
             id="g362"
             transform="translate(1130.8158,167.935)">
            <path
               d="m 0,0 c 0,0.294 0.195,0.489 0.489,0.489 h 19.054 c 0.294,0 0.49,-0.195 0.49,-0.489 v -1.666 c 0,-0.294 -0.196,-0.489 -0.49,-0.489 H 3.086 c -0.196,0 -0.294,-0.098 -0.294,-0.294 v -11.854 c 0,-0.196 0.098,-0.294 0.294,-0.294 h 14.155 c 0.294,0 0.489,-0.195 0.489,-0.489 v -1.666 c 0,-0.294 -0.195,-0.489 -0.489,-0.489 H 3.086 c -0.196,0 -0.294,-0.099 -0.294,-0.294 v -12.344 c 0,-0.195 0.098,-0.294 0.294,-0.294 h 16.457 c 0.294,0 0.49,-0.195 0.49,-0.489 v -1.665 c 0,-0.294 -0.196,-0.49 -0.49,-0.49 H 0.489 c -0.294,0 -0.489,0.196 -0.489,0.49 z"
               style="fill:#000000;fill-opacity:1;fill-rule:nonzero;stroke:none"
               id="path364" />
          </g>
          <g
             id="g366"
             transform="translate(1170.1,167.935)">
            <path
               d="m 0,0 c 0,0.294 0.195,0.489 0.489,0.489 h 1.813 c 0.294,0 0.49,-0.195 0.49,-0.489 v -32.327 c 0,-0.294 -0.196,-0.49 -0.49,-0.49 H 0.489 c -0.294,0 -0.489,0.196 -0.489,0.49 z"
               style="fill:#000000;fill-opacity:1;fill-rule:nonzero;stroke:none"
               id="path368" />
          </g>
          <g
             id="g370"
             transform="translate(1182.1,167.935)">
            <path
               d="M 0,0 C 0,0.294 0.195,0.489 0.489,0.489 H 2.302 C 2.645,0.489 2.938,0.392 3.135,0 l 16.604,-27.381 h 0.147 V 0 c 0,0.294 0.196,0.489 0.49,0.489 h 1.811 c 0.294,0 0.491,-0.195 0.491,-0.489 v -32.327 c 0,-0.294 -0.197,-0.49 -0.491,-0.49 h -1.91 c -0.294,0 -0.587,0.097 -0.832,0.49 L 2.987,-4.898 H 2.792 v -27.429 c 0,-0.294 -0.196,-0.49 -0.49,-0.49 H 0.489 c -0.294,0 -0.489,0.196 -0.489,0.49 z"
               style="fill:#000000;fill-opacity:1;fill-rule:nonzero;stroke:none"
               id="path372" />
          </g>
          <g
             id="g374"
             transform="translate(1213.9877,167.935)">
            <path
               d="M 0,0 C 0,0.294 0.195,0.489 0.489,0.489 H 2.302 C 2.645,0.489 2.938,0.392 3.135,0 l 16.604,-27.381 h 0.147 V 0 c 0,0.294 0.196,0.489 0.49,0.489 h 1.811 c 0.294,0 0.491,-0.195 0.491,-0.489 v -32.327 c 0,-0.294 -0.197,-0.49 -0.491,-0.49 h -1.91 c -0.294,0 -0.588,0.097 -0.832,0.49 L 2.987,-4.898 H 2.792 v -27.429 c 0,-0.294 -0.196,-0.49 -0.49,-0.49 H 0.489 c -0.294,0 -0.489,0.196 -0.489,0.49 z"
               style="fill:#000000;fill-opacity:1;fill-rule:nonzero;stroke:none"
               id="path376" />
          </g>
          <g
             id="g378"
             transform="translate(1264.2426,160.6362)">
            <path
               d="m 0,0 c -1.225,3.674 -3.918,5.633 -8.032,5.633 -4.164,0 -6.858,-1.959 -8.082,-5.633 -0.442,-1.322 -0.833,-3.478 -0.833,-8.865 0,-5.388 0.391,-7.543 0.833,-8.865 1.224,-3.674 3.918,-5.633 8.082,-5.633 4.114,0 6.807,1.959 8.032,5.633 0.441,1.322 0.833,3.477 0.833,8.865 C 0.833,-3.478 0.441,-1.322 0,0 m -18.809,-18.515 c -0.587,1.764 -0.979,3.919 -0.979,9.65 0,5.73 0.392,7.886 0.979,9.649 1.617,4.899 5.339,7.494 10.777,7.494 5.387,0 9.11,-2.595 10.726,-7.494 0.588,-1.763 0.98,-3.919 0.98,-9.649 0,-5.731 -0.392,-7.886 -0.98,-9.65 -1.616,-4.897 -5.339,-7.494 -10.726,-7.494 -5.438,0 -9.16,2.597 -10.777,7.494"
               style="fill:#000000;fill-opacity:1;fill-rule:nonzero;stroke:none"
               id="path380" />
          </g>
          <g
             id="g382"
             transform="translate(1283.64,135.1176)">
            <path
               d="M 0,0 C -0.294,0 -0.44,0.196 -0.539,0.49 L -11.56,32.621 c -0.195,0.441 0,0.686 0.343,0.686 h 1.715 c 0.44,0 0.588,-0.098 0.734,-0.49 L 0.882,4.653 h 0.097 l 9.405,28.164 c 0.147,0.392 0.294,0.49 0.685,0.49 h 1.764 c 0.343,0 0.539,-0.245 0.392,-0.686 L 2.253,0.49 C 2.155,0.196 1.959,0 1.665,0 Z"
               style="fill:#000000;fill-opacity:1;fill-rule:nonzero;stroke:none"
               id="path384" />
          </g>
          <g
             id="g386"
             transform="translate(1316.7533,146.4809)">
            <path
               d="M 0,0 -6.221,17.437 H -6.368 L -12.638,0 Z m -7.739,21.454 c 0.097,0.294 0.294,0.489 0.588,0.489 h 1.763 c 0.343,0 0.49,-0.195 0.587,-0.489 l 11.56,-32.327 c 0.098,-0.294 -0.049,-0.49 -0.343,-0.49 h -1.91 c -0.343,0 -0.539,0.097 -0.637,0.49 l -2.938,8.18 h -14.499 l -2.939,-8.18 c -0.146,-0.393 -0.343,-0.49 -0.637,-0.49 h -1.91 c -0.294,0 -0.44,0.196 -0.342,0.49 z"
               style="fill:#000000;fill-opacity:1;fill-rule:nonzero;stroke:none"
               id="path388" />
          </g>
          <g
             id="g390"
             transform="translate(1327.5306,151.7709)">
            <path
               d="m 0,0 c 0,5.829 0.343,8.033 0.882,9.698 1.665,4.996 5.29,7.446 10.531,7.446 4.555,0 8.13,-2.107 10.041,-6.172 0.098,-0.245 0.098,-0.49 -0.147,-0.637 L 19.69,9.552 C 19.445,9.404 19.2,9.502 19.054,9.747 17.535,12.588 15.185,14.498 11.413,14.498 7.348,14.498 4.85,12.588 3.576,8.964 3.135,7.642 2.841,5.584 2.841,0 c 0,-5.584 0.294,-7.641 0.735,-8.963 1.274,-3.625 3.772,-5.535 7.837,-5.535 3.772,0 6.122,1.91 7.641,4.751 0.146,0.245 0.391,0.343 0.636,0.196 l 1.617,-0.784 c 0.245,-0.146 0.245,-0.392 0.147,-0.637 -1.911,-4.065 -5.486,-6.172 -10.041,-6.172 -5.241,0 -8.866,2.45 -10.531,7.446 C 0.343,-8.032 0,-5.828 0,0"
               style="fill:#000000;fill-opacity:1;fill-rule:nonzero;stroke:none"
               id="path392" />
          </g>
          <g
             id="g394"
             transform="translate(1356.1859,167.935)">
            <path
               d="m 0,0 c 0,0.294 0.195,0.489 0.489,0.489 h 1.813 c 0.294,0 0.49,-0.195 0.49,-0.489 v -32.327 c 0,-0.294 -0.196,-0.49 -0.49,-0.49 H 0.489 c -0.294,0 -0.489,0.196 -0.489,0.49 z"
               style="fill:#000000;fill-opacity:1;fill-rule:nonzero;stroke:none"
               id="path396" />
          </g>
          <g
             id="g398"
             transform="translate(1377.0023,172.5385)">
            <path
               d="M 0,0 C -0.294,0 -0.441,0.196 -0.196,0.49 L 3.82,5.584 c 0.245,0.343 0.491,0.49 0.882,0.49 h 1.959 c 0.294,0 0.392,-0.245 0.196,-0.49 L 2.155,0.441 C 1.812,0.05 1.665,0 1.273,0 Z m 9.551,-11.902 c -1.225,3.673 -3.918,5.632 -8.032,5.632 -4.165,0 -6.858,-1.959 -8.082,-5.632 -0.442,-1.323 -0.833,-3.478 -0.833,-8.866 0,-5.387 0.391,-7.543 0.833,-8.865 1.224,-3.674 3.917,-5.633 8.082,-5.633 4.114,0 6.807,1.959 8.032,5.633 0.441,1.322 0.833,3.478 0.833,8.865 0,5.388 -0.392,7.543 -0.833,8.866 M -9.258,-30.417 c -0.588,1.764 -0.979,3.919 -0.979,9.649 0,5.731 0.391,7.886 0.979,9.65 1.616,4.898 5.339,7.494 10.777,7.494 5.387,0 9.11,-2.596 10.726,-7.494 0.588,-1.764 0.98,-3.919 0.98,-9.65 0,-5.73 -0.392,-7.885 -0.98,-9.649 -1.616,-4.897 -5.339,-7.494 -10.726,-7.494 -5.438,0 -9.161,2.597 -10.777,7.494"
               style="fill:#000000;fill-opacity:1;fill-rule:nonzero;stroke:none"
               id="path400" />
          </g>
          <g
             id="g402"
             transform="translate(1398.017,167.935)">
            <path
               d="M 0,0 C 0,0.294 0.195,0.489 0.489,0.489 H 2.302 C 2.645,0.489 2.938,0.392 3.135,0 l 16.604,-27.381 h 0.147 V 0 c 0,0.294 0.196,0.489 0.49,0.489 h 1.811 c 0.294,0 0.491,-0.195 0.491,-0.489 v -32.327 c 0,-0.294 -0.197,-0.49 -0.491,-0.49 h -1.91 c -0.294,0 -0.588,0.097 -0.832,0.49 L 2.987,-4.898 H 2.792 v -27.429 c 0,-0.294 -0.196,-0.49 -0.49,-0.49 H 0.489 c -0.294,0 -0.489,0.196 -0.489,0.49 z"
               style="fill:#000000;fill-opacity:1;fill-rule:nonzero;stroke:none"
               id="path404" />
          </g>
        </g>
      </g>
    </g>
    <path
       d="M 6.4354586,112.39693 H 170.8079 V 74.448099 H 6.4354586 Z"
       style="fill:#1d1d1b;fill-opacity:1;fill-rule:nonzero;stroke:none;stroke-width:0.0804615"
       id="path410" />
    <path
       d="M 6.4354586,68.501362 H 170.8079 V 30.552531 H 6.4354586 Z"
       style="fill:#1d1d1b;fill-opacity:1;fill-rule:nonzero;stroke:none;stroke-width:0.0804615"
       id="path3236" />
    <g
       id="g2691"
       transform="matrix(0.32903632,0,0,0.32903632,207.54727,17.933334)">
      <g
         id="g100"
         transform="matrix(0.35277777,0,0,-0.35277777,-160.9239,57.739213)">
        <path
           d="M 0,0 -14.135,-18.808 0,-37.616 14.133,-18.808 Z"
           style="fill:#ffffff;fill-opacity:1;fill-rule:nonzero;stroke:none"
           id="path102" />
      </g>
      <g
         id="g104"
         transform="matrix(0.35277777,0,0,-0.35277777,-155.93858,64.373728)">
        <path
           d="M 0,0 23.29,3.307 19.984,-19.984 -3.307,-23.29 Z"
           style="fill:#ffffff;fill-opacity:1;fill-rule:nonzero;stroke:none"
           id="path106" />
      </g>
      <g
         id="g108"
         transform="matrix(0.35277777,0,0,-0.35277777,-155.52573,76.408283)">
        <path
           d="M 0,0 18.808,-14.128 37.614,0 18.808,14.133 Z"
           style="fill:#ffffff;fill-opacity:1;fill-rule:nonzero;stroke:none"
           id="path110" />
      </g>
      <g
         id="g112"
         transform="matrix(0.35277777,0,0,-0.35277777,-148.89142,81.39268)">
        <path
           d="m 0,0 3.307,-23.29 -23.291,3.306 -3.306,23.291 z"
           style="fill:#ffffff;fill-opacity:1;fill-rule:nonzero;stroke:none"
           id="path114" />
      </g>
      <g
         id="g116"
         transform="matrix(0.35277777,0,0,-0.35277777,-155.94095,88.442273)">
        <path
           d="M 0,0 -14.131,-18.808 -28.262,0 -14.131,18.808 Z"
           style="fill:#ffffff;fill-opacity:1;fill-rule:nonzero;stroke:none"
           id="path118" />
      </g>
      <g
         id="g120"
         transform="matrix(0.35277777,0,0,-0.35277777,-165.90981,88.442556)">
        <path
           d="m 0,0 -23.29,-3.307 3.306,23.291 23.291,3.306 z"
           style="fill:#ffffff;fill-opacity:1;fill-rule:nonzero;stroke:none"
           id="path122" />
      </g>
      <g
         id="g124"
         transform="matrix(0.35277777,0,0,-0.35277777,-172.95955,81.392821)">
        <path
           d="M 0,0 -18.808,14.131 0,28.26 18.808,14.131 Z"
           style="fill:#ffffff;fill-opacity:1;fill-rule:nonzero;stroke:none"
           id="path126" />
      </g>
      <g
         id="g128"
         transform="matrix(0.35277777,0,0,-0.35277777,-172.95955,71.423603)">
        <path
           d="M 0,0 -3.307,23.29 19.984,19.984 23.29,-3.307 Z"
           style="fill:#ffffff;fill-opacity:1;fill-rule:nonzero;stroke:none"
           id="path130" />
      </g>
      <g
         id="g132"
         transform="matrix(0.35277777,0,0,-0.35277777,-680.57529,178.36)">
        <g
           id="g134"
           clip-path="url(#clipPath138)">
          <g
             id="g140"
             transform="translate(351.6885,288.7135)">
            <path
               d="m 0,0 c 0,1.17 0.777,1.95 1.946,1.95 h 7.207 c 1.17,0 1.951,-0.78 1.951,-1.95 v -128.57 c 0,-1.17 -0.781,-1.948 -1.951,-1.948 H 1.946 c -1.169,0 -1.946,0.778 -1.946,1.948 z"
               style="fill:#ffffff;fill-opacity:1;fill-rule:nonzero;stroke:none"
               id="path142" />
          </g>
          <g
             id="g144"
             transform="translate(384.8036,288.7135)">
            <path
               d="m 0,0 c 0,1.17 0.777,1.95 1.946,1.95 h 7.207 c 1.365,0 2.534,-0.391 3.315,-1.95 l 66.038,-108.897 h 0.586 V 0 c 0,1.17 0.777,1.95 1.946,1.95 h 7.207 c 1.17,0 1.949,-0.78 1.949,-1.95 v -128.57 c 0,-1.17 -0.779,-1.948 -1.949,-1.948 h -7.596 c -1.169,0 -2.337,0.389 -3.312,1.948 L 11.882,-19.482 H 11.104 V -128.57 c 0,-1.17 -0.781,-1.948 -1.951,-1.948 H 1.946 c -1.169,0 -1.946,0.778 -1.946,1.948 z"
               style="fill:#ffffff;fill-opacity:1;fill-rule:nonzero;stroke:none"
               id="path146" />
          </g>
          <g
             id="g148"
             transform="translate(497.0005,288.7135)">
            <path
               d="m 0,0 c 0,1.17 0.777,1.95 1.946,1.95 h 7.207 c 1.365,0 2.534,-0.391 3.315,-1.95 l 66.038,-108.897 h 0.586 V 0 c 0,1.17 0.777,1.95 1.946,1.95 h 7.207 c 1.17,0 1.951,-0.78 1.951,-1.95 v -128.57 c 0,-1.17 -0.781,-1.948 -1.951,-1.948 h -7.596 c -1.169,0 -2.337,0.389 -3.312,1.948 L 11.884,-19.482 h -0.78 V -128.57 c 0,-1.17 -0.781,-1.948 -1.951,-1.948 H 1.946 c -1.169,0 -1.946,0.778 -1.946,1.948 z"
               style="fill:#ffffff;fill-opacity:1;fill-rule:nonzero;stroke:none"
               id="path150" />
          </g>
          <g
             id="g152"
             transform="translate(607.4437,186.0487)">
            <path
               d="m 0,0 c -2.338,7.018 -3.896,15.589 -3.896,38.38 0,22.791 1.558,31.362 3.896,38.375 6.427,19.482 21.234,29.808 42.858,29.808 21.429,0 36.234,-10.326 42.661,-29.808 C 87.858,69.742 89.415,61.171 89.415,38.38 89.415,15.589 87.858,7.018 85.519,0 79.092,-19.478 64.287,-29.803 42.858,-29.803 21.234,-29.803 6.427,-19.478 0,0 M 74.806,73.64 C 69.935,88.251 59.223,96.042 42.858,96.042 26.3,96.042 15.584,88.251 10.714,73.64 8.962,68.378 7.402,59.807 7.402,38.38 c 0,-21.432 1.56,-30.003 3.312,-35.26 4.87,-14.611 15.586,-22.402 32.144,-22.402 16.365,0 27.077,7.791 31.948,22.402 1.754,5.257 3.311,13.828 3.311,35.26 0,21.427 -1.557,29.998 -3.311,35.26"
               style="fill:#ffffff;fill-opacity:1;fill-rule:nonzero;stroke:none"
               id="path154" />
          </g>
          <g
             id="g156"
             transform="translate(744.7778,158.1946)">
            <path
               d="m 0,0 c -1.17,0 -1.754,0.779 -2.145,1.948 l -43.83,127.792 c -0.778,1.753 0,2.728 1.363,2.728 h 6.819 c 1.752,0 2.338,-0.389 2.922,-1.95 L 3.507,18.507 h 0.389 l 37.403,112.011 c 0.585,1.561 1.167,1.95 2.726,1.95 h 7.014 c 1.364,0 2.143,-0.975 1.559,-2.728 L 8.961,1.948 C 8.571,0.779 7.793,0 6.623,0 Z"
               style="fill:#ffffff;fill-opacity:1;fill-rule:nonzero;stroke:none"
               id="path158" />
          </g>
          <g
             id="g160"
             transform="translate(831.07,288.7135)">
            <path
               d="M 0,0 C 0.389,1.17 1.17,1.95 2.339,1.95 H 9.352 C 10.716,1.95 11.3,1.17 11.691,0 l 45.974,-128.57 c 0.388,-1.17 -0.196,-1.948 -1.366,-1.948 h -7.596 c -1.364,0 -2.145,0.389 -2.534,1.948 l -11.687,32.532 h -57.664 l -11.687,-32.532 c -0.584,-1.559 -1.365,-1.948 -2.534,-1.948 H -45 c -1.169,0 -1.751,0.778 -1.362,1.948 z M 30.78,-85.326 6.039,-15.973 H 5.455 L -19.48,-85.326 Z"
               style="fill:#ffffff;fill-opacity:1;fill-rule:nonzero;stroke:none"
               id="path162" />
          </g>
          <g
             id="g164"
             transform="translate(894.7657,206.8954)">
            <path
               d="m 0,0 v 81.819 c 0,1.169 0.78,1.948 1.948,1.948 h 24.741 c 1.168,0 1.946,-0.779 1.946,-1.948 V -0.779 c 0,-15.78 8.768,-24.74 22.211,-24.74 13.246,0 22.012,8.96 22.012,24.74 v 82.598 c 0,1.169 0.779,1.948 1.948,1.948 h 24.739 c 1.17,0 1.95,-0.779 1.95,-1.948 V 0 c 0,-32.923 -21.039,-50.844 -50.649,-50.844 C 21.039,-50.844 0,-32.923 0,0"
               style="fill:#ffffff;fill-opacity:1;fill-rule:nonzero;stroke:none"
               id="path166" />
          </g>
          <g
             id="g168"
             transform="translate(1016.1191,288.7135)">
            <path
               d="m 0,0 c 0,1.17 0.78,1.95 1.946,1.95 h 24.743 c 1.168,0 1.948,-0.78 1.948,-1.95 v -103.829 c 0,-0.781 0.39,-1.17 1.17,-1.17 h 58.44 c 1.168,0 1.948,-0.78 1.948,-1.95 v -21.621 c 0,-1.17 -0.78,-1.948 -1.948,-1.948 H 1.946 C 0.78,-130.518 0,-129.74 0,-128.57 Z"
               style="fill:#ffffff;fill-opacity:1;fill-rule:nonzero;stroke:none"
               id="path170" />
          </g>
          <g
             id="g172"
             transform="translate(1118.3827,288.7135)">
            <path
               d="m 0,0 c 0,1.17 0.781,1.95 1.946,1.95 h 24.743 c 1.168,0 1.946,-0.78 1.946,-1.95 v -128.57 c 0,-1.17 -0.778,-1.948 -1.946,-1.948 H 1.946 c -1.165,0 -1.946,0.778 -1.946,1.948 z"
               style="fill:#ffffff;fill-opacity:1;fill-rule:nonzero;stroke:none"
               id="path174" />
          </g>
          <g
             id="g176"
             transform="translate(1167.4692,288.7135)">
            <path
               d="M 0,0 C 0,1.17 0.78,1.95 1.946,1.95 H 25.13 c 1.559,0 2.532,-0.586 3.116,-1.95 l 33.507,-75.585 h 0.78 L 95.454,0 c 0.586,1.364 1.561,1.95 3.118,1.95 h 22.793 c 1.168,0 1.946,-0.78 1.946,-1.95 v -128.57 c 0,-1.17 -0.778,-1.948 -1.946,-1.948 H 99.351 c -1.17,0 -1.947,0.778 -1.947,1.948 v 74.612 h -0.78 L 72.08,-109.872 c -0.781,-1.754 -1.95,-2.529 -3.704,-2.529 H 54.937 c -1.755,0 -2.925,0.775 -3.702,2.529 L 26.689,-53.958 H 25.91 v -74.612 c 0,-1.17 -0.78,-1.948 -1.949,-1.948 H 1.946 C 0.78,-130.518 0,-129.74 0,-128.57 Z"
               style="fill:#ffffff;fill-opacity:1;fill-rule:nonzero;stroke:none"
               id="path178" />
          </g>
          <g
             id="g180"
             transform="translate(1346.8729,288.7135)">
            <path
               d="m 0,0 c 0.389,1.17 1.17,1.95 2.534,1.95 h 24.544 c 1.365,0 2.143,-0.78 2.532,-1.95 l 44.805,-128.57 c 0.391,-1.17 0,-1.948 -1.362,-1.948 H 47.728 c -1.364,0 -2.143,0.584 -2.532,1.948 l -7.598,23.182 H -8.766 l -7.403,-23.182 c -0.39,-1.364 -1.166,-1.948 -2.531,-1.948 h -25.521 c -1.364,0 -1.754,0.778 -1.364,1.948 z M 29.805,-81.038 14.807,-34.676 H 14.221 L -0.777,-81.038 Z"
               style="fill:#ffffff;fill-opacity:1;fill-rule:nonzero;stroke:none"
               id="path182" />
          </g>
        </g>
      </g>
    </g>
    <g
       id="g2907"
       transform="matrix(0.33586792,0,0,0.33586792,-238.19754,59.782168)">
      <g
         id="g412"
         transform="matrix(0.35277777,0,0,-0.35277777,1169.5275,50.097549)">
        <path
           d="M 0,0 -14.135,-18.808 0,-37.615 14.133,-18.808 Z"
           style="fill:#ff5117;fill-opacity:1;fill-rule:nonzero;stroke:none"
           id="path414" />
      </g>
      <g
         id="g416"
         transform="matrix(0.35277777,0,0,-0.35277777,1174.5129,56.732064)">
        <path
           d="M 0,0 23.29,3.307 19.984,-19.984 -3.307,-23.29 Z"
           style="fill:#ff5117;fill-opacity:1;fill-rule:nonzero;stroke:none"
           id="path418" />
      </g>
      <g
         id="g420"
         transform="matrix(0.35277777,0,0,-0.35277777,1174.9257,68.766619)">
        <path
           d="M 0,0 18.808,-14.127 37.615,0 18.808,14.133 Z"
           style="fill:#ff5117;fill-opacity:1;fill-rule:nonzero;stroke:none"
           id="path422" />
      </g>
      <g
         id="g424"
         transform="matrix(0.35277777,0,0,-0.35277777,1181.56,73.751016)">
        <path
           d="m 0,0 3.307,-23.29 -23.291,3.306 -3.306,23.291 z"
           style="fill:#ff5117;fill-opacity:1;fill-rule:nonzero;stroke:none"
           id="path426" />
      </g>
      <g
         id="g428"
         transform="matrix(0.35277777,0,0,-0.35277777,1174.5105,80.800574)">
        <path
           d="M 0,0 -14.133,-18.808 -28.262,0 -14.133,18.808 Z"
           style="fill:#ff5117;fill-opacity:1;fill-rule:nonzero;stroke:none"
           id="path430" />
      </g>
      <g
         id="g432"
         transform="matrix(0.35277777,0,0,-0.35277777,1164.5416,80.800891)">
        <path
           d="m 0,0 -23.29,-3.307 3.306,23.291 23.291,3.306 z"
           style="fill:#ff5117;fill-opacity:1;fill-rule:nonzero;stroke:none"
           id="path434" />
      </g>
      <g
         id="g436"
         transform="matrix(0.35277777,0,0,-0.35277777,1157.4919,73.751157)">
        <path
           d="M 0,0 -18.808,14.131 0,28.26 18.808,14.131 Z"
           style="fill:#ff5117;fill-opacity:1;fill-rule:nonzero;stroke:none"
           id="path438" />
      </g>
      <g
         id="g440"
         transform="matrix(0.35277777,0,0,-0.35277777,1157.4919,63.781939)">
        <path
           d="M 0,0 -3.307,23.29 19.984,19.984 23.29,-3.307 Z"
           style="fill:#ff5117;fill-opacity:1;fill-rule:nonzero;stroke:none"
           id="path442" />
      </g>
      <g
         id="g444"
         transform="matrix(0.35277777,0,0,-0.35277777,649.8767,184.38791)">
        <g
           id="g446"
           clip-path="url(#clipPath450)">
          <g
             id="g452"
             transform="translate(351.6885,327.4619)">
            <path
               d="m 0,0 c 0,1.17 0.777,1.95 1.946,1.95 h 7.208 c 1.169,0 1.949,-0.78 1.949,-1.95 v -128.57 c 0,-1.17 -0.78,-1.948 -1.949,-1.948 H 1.946 c -1.169,0 -1.946,0.778 -1.946,1.948 z"
               style="fill:#ffffff;fill-opacity:1;fill-rule:nonzero;stroke:none"
               id="path454" />
          </g>
          <g
             id="g456"
             transform="translate(384.8033,327.4619)">
            <path
               d="m 0,0 c 0,1.17 0.777,1.95 1.946,1.95 h 7.208 c 1.364,0 2.533,-0.391 3.314,-1.95 l 66.038,-108.897 h 0.586 V 0 c 0,1.17 0.777,1.95 1.946,1.95 h 7.207 c 1.17,0 1.949,-0.78 1.949,-1.95 v -128.57 c 0,-1.17 -0.779,-1.948 -1.949,-1.948 h -7.596 c -1.17,0 -2.337,0.389 -3.312,1.948 L 11.882,-19.482 H 11.103 V -128.57 c 0,-1.17 -0.78,-1.948 -1.949,-1.948 H 1.946 c -1.169,0 -1.946,0.778 -1.946,1.948 z"
               style="fill:#ffffff;fill-opacity:1;fill-rule:nonzero;stroke:none"
               id="path458" />
          </g>
          <g
             id="g460"
             transform="translate(497.0003,327.4619)">
            <path
               d="m 0,0 c 0,1.17 0.777,1.95 1.946,1.95 h 7.207 c 1.365,0 2.534,-0.391 3.315,-1.95 l 66.038,-108.897 h 0.586 V 0 c 0,1.17 0.777,1.95 1.946,1.95 h 7.207 c 1.17,0 1.95,-0.78 1.95,-1.95 v -128.57 c 0,-1.17 -0.78,-1.948 -1.95,-1.948 h -7.596 c -1.17,0 -2.337,0.389 -3.312,1.948 L 11.884,-19.482 H 11.103 V -128.57 c 0,-1.17 -0.78,-1.948 -1.95,-1.948 H 1.946 c -1.169,0 -1.946,0.778 -1.946,1.948 z"
               style="fill:#ffffff;fill-opacity:1;fill-rule:nonzero;stroke:none"
               id="path462" />
          </g>
          <g
             id="g464"
             transform="translate(607.4434,224.7973)">
            <path
               d="m 0,0 c -2.337,7.018 -3.896,15.589 -3.896,38.38 0,22.791 1.559,31.362 3.896,38.374 6.427,19.482 21.234,29.809 42.858,29.809 21.429,0 36.234,-10.327 42.661,-29.809 C 87.858,69.742 89.415,61.171 89.415,38.38 89.415,15.589 87.858,7.018 85.519,0 79.092,-19.478 64.287,-29.803 42.858,-29.803 21.234,-29.803 6.427,-19.478 0,0 M 74.806,73.64 C 69.935,88.251 59.222,96.042 42.858,96.042 26.3,96.042 15.584,88.251 10.714,73.64 8.961,68.378 7.402,59.806 7.402,38.38 c 0,-21.432 1.559,-30.003 3.312,-35.26 4.87,-14.611 15.586,-22.402 32.144,-22.402 16.364,0 27.077,7.791 31.948,22.402 1.754,5.257 3.311,13.828 3.311,35.26 0,21.426 -1.557,29.998 -3.311,35.26"
               style="fill:#ffffff;fill-opacity:1;fill-rule:nonzero;stroke:none"
               id="path466" />
          </g>
          <g
             id="g468"
             transform="translate(744.7772,196.9432)">
            <path
               d="M 0,0 C -1.17,0 -1.754,0.779 -2.145,1.948 L -45.974,129.74 c -0.779,1.753 0,2.728 1.362,2.728 h 6.82 c 1.751,0 2.335,-0.389 2.921,-1.95 L 3.507,18.507 h 0.389 l 37.403,112.011 c 0.584,1.561 1.167,1.95 2.726,1.95 h 7.014 c 1.364,0 2.143,-0.975 1.559,-2.728 L 8.962,1.948 C 8.571,0.779 7.793,0 6.623,0 Z"
               style="fill:#ffffff;fill-opacity:1;fill-rule:nonzero;stroke:none"
               id="path470" />
          </g>
          <g
             id="g472"
             transform="translate(831.0694,327.4619)">
            <path
               d="M 0,0 C 0.389,1.17 1.17,1.95 2.339,1.95 H 9.352 C 10.716,1.95 11.3,1.17 11.689,0 l 45.976,-128.57 c 0.388,-1.17 -0.196,-1.948 -1.366,-1.948 h -7.596 c -1.364,0 -2.145,0.389 -2.534,1.948 l -11.687,32.532 h -57.664 l -11.687,-32.532 c -0.584,-1.559 -1.365,-1.948 -2.534,-1.948 H -45 c -1.169,0 -1.751,0.778 -1.362,1.948 z M 30.78,-85.326 6.039,-15.973 H 5.455 L -19.48,-85.326 Z"
               style="fill:#ffffff;fill-opacity:1;fill-rule:nonzero;stroke:none"
               id="path474" />
          </g>
          <g
             id="g476"
             transform="translate(894.765,245.6439)">
            <path
               d="m 0,0 v 81.819 c 0,1.169 0.78,1.948 1.948,1.948 h 24.741 c 1.168,0 1.946,-0.779 1.946,-1.948 V -0.779 c 0,-15.78 8.768,-24.74 22.211,-24.74 13.246,0 22.012,8.96 22.012,24.74 v 82.598 c 0,1.169 0.779,1.948 1.948,1.948 h 24.739 c 1.17,0 1.95,-0.779 1.95,-1.948 V 0 c 0,-32.923 -21.039,-50.844 -50.649,-50.844 C 21.039,-50.844 0,-32.923 0,0"
               style="fill:#ffffff;fill-opacity:1;fill-rule:nonzero;stroke:none"
               id="path478" />
          </g>
          <g
             id="g480"
             transform="translate(1016.1182,327.4619)">
            <path
               d="m 0,0 c 0,1.17 0.78,1.95 1.946,1.95 h 24.743 c 1.168,0 1.948,-0.78 1.948,-1.95 v -103.829 c 0,-0.781 0.389,-1.17 1.17,-1.17 h 58.44 c 1.168,0 1.948,-0.78 1.948,-1.95 v -21.621 c 0,-1.17 -0.78,-1.948 -1.948,-1.948 H 1.946 C 0.78,-130.518 0,-129.74 0,-128.57 Z"
               style="fill:#ffffff;fill-opacity:1;fill-rule:nonzero;stroke:none"
               id="path482" />
          </g>
          <g
             id="g484"
             transform="translate(1118.3817,327.4619)">
            <path
               d="m 0,0 c 0,1.17 0.78,1.95 1.946,1.95 h 24.743 c 1.168,0 1.946,-0.78 1.946,-1.95 v -128.57 c 0,-1.17 -0.778,-1.948 -1.946,-1.948 H 1.946 C 0.78,-130.518 0,-129.74 0,-128.57 Z"
               style="fill:#ffffff;fill-opacity:1;fill-rule:nonzero;stroke:none"
               id="path486" />
          </g>
          <g
             id="g488"
             transform="translate(1167.4681,327.4619)">
            <path
               d="M 0,0 C 0,1.17 0.779,1.95 1.946,1.95 H 25.13 c 1.559,0 2.532,-0.586 3.116,-1.95 l 33.507,-75.585 h 0.78 L 95.454,0 c 0.586,1.364 1.561,1.95 3.116,1.95 h 22.795 c 1.167,0 1.946,-0.78 1.946,-1.95 v -128.57 c 0,-1.17 -0.779,-1.948 -1.946,-1.948 H 99.351 c -1.17,0 -1.947,0.778 -1.947,1.948 v 74.612 h -0.78 l -24.545,-55.914 c -0.78,-1.753 -1.949,-2.528 -3.703,-2.528 H 54.935 c -1.753,0 -2.923,0.775 -3.7,2.528 L 26.689,-53.958 H 25.91 v -74.612 c 0,-1.17 -0.78,-1.948 -1.949,-1.948 H 1.946 c -1.167,0 -1.946,0.778 -1.946,1.948 z"
               style="fill:#ffffff;fill-opacity:1;fill-rule:nonzero;stroke:none"
               id="path490" />
          </g>
          <g
             id="g492"
             transform="translate(1346.8715,327.4619)">
            <path
               d="M 0,0 C 0.389,1.17 1.17,1.95 2.534,1.95 H 27.08 c 1.364,0 2.141,-0.78 2.53,-1.95 l 44.805,-128.57 c 0.391,-1.17 0,-1.948 -1.36,-1.948 H 47.728 c -1.364,0 -2.143,0.584 -2.53,1.948 l -7.6,23.182 H -8.766 l -7.403,-23.182 c -0.39,-1.364 -1.166,-1.948 -2.531,-1.948 h -25.521 c -1.364,0 -1.753,0.778 -1.364,1.948 z M 29.805,-81.038 14.807,-34.676 H 14.221 L -0.777,-81.038 Z"
               style="fill:#ffffff;fill-opacity:1;fill-rule:nonzero;stroke:none"
               id="path494" />
          </g>
          <g
             id="g496"
             transform="translate(476.702,151.7709)">
            <path
               d="m 0,0 c 0,5.829 0.342,8.033 0.881,9.698 1.666,4.996 5.291,7.446 10.531,7.446 4.555,0 8.131,-2.107 10.041,-6.172 0.098,-0.245 0.098,-0.49 -0.146,-0.637 L 19.689,9.552 c -0.244,-0.148 -0.49,-0.05 -0.636,0.195 -1.518,2.841 -3.869,4.751 -7.641,4.751 -4.064,0 -6.562,-1.91 -7.836,-5.534 C 3.135,7.642 2.84,5.584 2.84,0 c 0,-5.584 0.295,-7.641 0.736,-8.963 1.274,-3.625 3.772,-5.535 7.836,-5.535 3.772,0 6.123,1.91 7.641,4.751 0.146,0.245 0.392,0.343 0.636,0.196 l 1.618,-0.784 c 0.244,-0.146 0.244,-0.392 0.146,-0.637 -1.91,-4.065 -5.486,-6.172 -10.041,-6.172 -5.24,0 -8.865,2.45 -10.531,7.446 C 0.342,-8.032 0,-5.828 0,0"
               style="fill:#ffffff;fill-opacity:1;fill-rule:nonzero;stroke:none"
               id="path498" />
          </g>
          <g
             id="g500"
             transform="translate(505.3563,167.935)">
            <path
               d="m 0,0 c 0,0.294 0.195,0.489 0.49,0.489 h 19.053 c 0.295,0 0.49,-0.195 0.49,-0.489 v -1.666 c 0,-0.294 -0.195,-0.489 -0.49,-0.489 H 3.086 c -0.195,0 -0.293,-0.098 -0.293,-0.294 v -11.854 c 0,-0.196 0.098,-0.294 0.293,-0.294 h 14.156 c 0.293,0 0.488,-0.195 0.488,-0.489 v -1.666 c 0,-0.294 -0.195,-0.489 -0.488,-0.489 H 3.086 c -0.195,0 -0.293,-0.099 -0.293,-0.294 v -12.344 c 0,-0.195 0.098,-0.294 0.293,-0.294 h 16.457 c 0.295,0 0.49,-0.195 0.49,-0.489 v -1.665 c 0,-0.294 -0.195,-0.49 -0.49,-0.49 H 0.49 c -0.295,0 -0.49,0.196 -0.49,0.49 z"
               style="fill:#ffffff;fill-opacity:1;fill-rule:nonzero;stroke:none"
               id="path502" />
          </g>
          <g
             id="g504"
             transform="translate(532.5927,167.935)">
            <path
               d="M 0,0 C 0,0.294 0.195,0.489 0.488,0.489 H 2.301 C 2.645,0.489 2.938,0.392 3.135,0 l 16.603,-27.381 h 0.147 V 0 c 0,0.294 0.197,0.489 0.49,0.489 h 1.812 c 0.293,0 0.491,-0.195 0.491,-0.489 v -32.327 c 0,-0.294 -0.198,-0.49 -0.491,-0.49 h -1.91 c -0.295,0 -0.588,0.097 -0.832,0.49 L 2.986,-4.898 H 2.791 v -27.429 c 0,-0.294 -0.195,-0.49 -0.49,-0.49 H 0.488 c -0.293,0 -0.488,0.196 -0.488,0.49 z"
               style="fill:#ffffff;fill-opacity:1;fill-rule:nonzero;stroke:none"
               id="path506" />
          </g>
          <g
             id="g508"
             transform="translate(571.8251,135.1176)">
            <path
               d="m 0,0 c -0.293,0 -0.488,0.196 -0.488,0.49 v 29.878 c 0,0.196 -0.1,0.294 -0.295,0.294 h -9.6 c -0.295,0 -0.49,0.195 -0.49,0.489 v 1.666 c 0,0.294 0.195,0.49 0.49,0.49 h 22.58 c 0.293,0 0.491,-0.196 0.491,-0.49 v -1.666 c 0,-0.294 -0.198,-0.489 -0.491,-0.489 H 2.596 C 2.4,30.662 2.303,30.564 2.303,30.368 V 0.49 C 2.303,0.196 2.107,0 1.812,0 Z"
               style="fill:#ffffff;fill-opacity:1;fill-rule:nonzero;stroke:none"
               id="path510" />
          </g>
          <g
             id="g512"
             transform="translate(609.1981,159.2162)">
            <path
               d="m 0,0 c 0,4.163 -2.645,6.563 -7.395,6.563 h -8.523 c -0.195,0 -0.293,-0.097 -0.293,-0.293 V -6.27 c 0,-0.196 0.098,-0.293 0.293,-0.293 h 8.523 C -2.645,-6.563 0,-4.213 0,0 m 0.736,-24.099 c -0.295,0 -0.441,0.098 -0.588,0.441 l -7.005,14.45 h -0.489 -8.572 c -0.195,0 -0.293,-0.099 -0.293,-0.294 v -14.106 c 0,-0.294 -0.197,-0.491 -0.49,-0.491 h -1.813 c -0.295,0 -0.49,0.197 -0.49,0.491 V 8.719 c 0,0.294 0.195,0.489 0.49,0.489 h 11.168 c 6.27,0 10.139,-3.526 10.139,-9.208 0,-4.604 -2.547,-7.788 -6.809,-8.816 l 7.25,-14.744 c 0.196,-0.294 0.049,-0.539 -0.246,-0.539 z"
               style="fill:#ffffff;fill-opacity:1;fill-rule:nonzero;stroke:none"
               id="path514" />
          </g>
          <g
             id="g516"
             transform="translate(638.6376,160.6362)">
            <path
               d="m 0,0 c -1.225,3.674 -3.918,5.633 -8.031,5.633 -4.164,0 -6.858,-1.959 -8.082,-5.633 -0.442,-1.322 -0.834,-3.478 -0.834,-8.865 0,-5.388 0.392,-7.543 0.834,-8.865 1.224,-3.674 3.918,-5.633 8.082,-5.633 4.113,0 6.806,1.959 8.031,5.633 0.441,1.322 0.834,3.477 0.834,8.865 C 0.834,-3.478 0.441,-1.322 0,0 m -18.809,-18.515 c -0.587,1.764 -0.978,3.919 -0.978,9.65 0,5.73 0.391,7.886 0.978,9.649 1.618,4.899 5.34,7.494 10.778,7.494 5.386,0 9.109,-2.595 10.726,-7.494 0.588,-1.763 0.979,-3.919 0.979,-9.649 0,-5.731 -0.391,-7.886 -0.979,-9.65 -1.617,-4.897 -5.34,-7.494 -10.726,-7.494 -5.438,0 -9.16,2.597 -10.778,7.494"
               style="fill:#ffffff;fill-opacity:1;fill-rule:nonzero;stroke:none"
               id="path518" />
          </g>
          <g
             id="g520"
             transform="translate(665.2352,137.7621)">
            <path
               d="m 0,0 h 7.445 c 4.311,0 7.151,1.519 8.326,5.046 0.54,1.616 0.784,3.33 0.784,8.963 0,5.633 -0.244,7.347 -0.784,8.964 -1.175,3.526 -4.015,5.045 -8.326,5.045 H 0 c -0.195,0 -0.293,-0.098 -0.293,-0.294 V 0.294 C -0.293,0.099 -0.195,0 0,0 m -3.086,30.173 c 0,0.294 0.195,0.489 0.49,0.489 H 7.838 c 5.533,0 9.158,-2.204 10.627,-6.759 0.637,-1.96 0.931,-3.821 0.931,-9.894 0,-6.073 -0.294,-7.935 -0.931,-9.894 -1.469,-4.555 -5.094,-6.76 -10.627,-6.76 H -2.596 c -0.295,0 -0.49,0.197 -0.49,0.491 z"
               style="fill:#ffffff;fill-opacity:1;fill-rule:nonzero;stroke:none"
               id="path522" />
          </g>
          <g
             id="g524"
             transform="translate(692.5204,167.935)">
            <path
               d="m 0,0 c 0,0.294 0.195,0.489 0.488,0.489 h 19.055 c 0.293,0 0.49,-0.195 0.49,-0.489 v -1.666 c 0,-0.294 -0.197,-0.489 -0.49,-0.489 H 3.086 c -0.197,0 -0.295,-0.098 -0.295,-0.294 v -11.854 c 0,-0.196 0.098,-0.294 0.295,-0.294 H 17.24 c 0.295,0 0.49,-0.195 0.49,-0.489 v -1.666 c 0,-0.294 -0.195,-0.489 -0.49,-0.489 H 3.086 c -0.197,0 -0.295,-0.099 -0.295,-0.294 v -12.344 c 0,-0.195 0.098,-0.294 0.295,-0.294 h 16.457 c 0.293,0 0.49,-0.195 0.49,-0.489 v -1.665 c 0,-0.294 -0.197,-0.49 -0.49,-0.49 H 0.488 c -0.293,0 -0.488,0.196 -0.488,0.49 z"
               style="fill:#ffffff;fill-opacity:1;fill-rule:nonzero;stroke:none"
               id="path526" />
          </g>
          <g
             id="g528"
             transform="translate(731.8036,167.935)">
            <path
               d="m 0,0 c 0,0.294 0.195,0.489 0.488,0.489 h 19.055 c 0.293,0 0.49,-0.195 0.49,-0.489 v -1.666 c 0,-0.294 -0.197,-0.489 -0.49,-0.489 H 3.086 c -0.197,0 -0.295,-0.098 -0.295,-0.294 v -11.854 c 0,-0.196 0.098,-0.294 0.295,-0.294 H 17.24 c 0.295,0 0.49,-0.195 0.49,-0.489 v -1.666 c 0,-0.294 -0.195,-0.489 -0.49,-0.489 H 3.086 c -0.197,0 -0.295,-0.099 -0.295,-0.294 v -12.344 c 0,-0.195 0.098,-0.294 0.295,-0.294 h 16.457 c 0.293,0 0.49,-0.195 0.49,-0.489 v -1.665 c 0,-0.294 -0.197,-0.49 -0.49,-0.49 H 0.488 c -0.293,0 -0.488,0.196 -0.488,0.49 z"
               style="fill:#ffffff;fill-opacity:1;fill-rule:nonzero;stroke:none"
               id="path530" />
          </g>
          <g
             id="g532"
             transform="translate(759.038,167.935)">
            <path
               d="M 0,0 C 0,0.294 0.195,0.489 0.49,0.489 H 2.352 C 2.693,0.489 2.939,0.343 3.086,0 L 13.91,-23.854 h 0.197 L 24.686,0 c 0.148,0.343 0.392,0.489 0.687,0.489 h 1.91 c 0.293,0 0.488,-0.195 0.488,-0.489 v -32.327 c 0,-0.294 -0.195,-0.49 -0.488,-0.49 h -1.812 c -0.295,0 -0.491,0.196 -0.491,0.49 V -6.27 h -0.146 l -9.602,-21.111 c -0.195,-0.391 -0.39,-0.538 -0.88,-0.538 h -0.981 c -0.439,0 -0.637,0.147 -0.832,0.538 L 2.939,-6.27 H 2.793 v -26.057 c 0,-0.294 -0.197,-0.49 -0.49,-0.49 H 0.49 c -0.295,0 -0.49,0.196 -0.49,0.49 z"
               style="fill:#ffffff;fill-opacity:1;fill-rule:nonzero;stroke:none"
               id="path534" />
          </g>
          <g
             id="g536"
             transform="translate(815.0731,158.9711)">
            <path
               d="m 0,0 c 0,4.262 -2.645,6.809 -7.543,6.809 h -8.424 c -0.197,0 -0.295,-0.098 -0.295,-0.294 V -6.466 c 0,-0.195 0.098,-0.293 0.295,-0.293 h 8.424 C -2.645,-6.759 0,-4.262 0,0 m -18.564,-23.854 c -0.293,0 -0.489,0.197 -0.489,0.491 V 8.964 c 0,0.294 0.196,0.489 0.489,0.489 H -7.445 C -1.078,9.453 2.791,5.829 2.791,0 c 0,-5.828 -3.869,-9.404 -10.236,-9.404 h -8.522 c -0.197,0 -0.295,-0.098 -0.295,-0.294 v -13.665 c 0,-0.294 -0.195,-0.491 -0.49,-0.491 z"
               style="fill:#ffffff;fill-opacity:1;fill-rule:nonzero;stroke:none"
               id="path538" />
          </g>
          <g
             id="g540"
             transform="translate(843.6786,159.2162)">
            <path
               d="m 0,0 c 0,4.163 -2.645,6.563 -7.396,6.563 h -8.522 c -0.197,0 -0.295,-0.097 -0.295,-0.293 V -6.27 c 0,-0.196 0.098,-0.293 0.295,-0.293 h 8.522 C -2.645,-6.563 0,-4.213 0,0 m 0.734,-24.099 c -0.293,0 -0.441,0.098 -0.588,0.441 l -7.003,14.45 h -0.491 -8.57 c -0.197,0 -0.295,-0.099 -0.295,-0.294 v -14.106 c 0,-0.294 -0.195,-0.491 -0.49,-0.491 h -1.813 c -0.293,0 -0.488,0.197 -0.488,0.491 V 8.719 c 0,0.294 0.195,0.489 0.488,0.489 h 11.168 c 6.27,0 10.139,-3.526 10.139,-9.208 0,-4.604 -2.547,-7.788 -6.809,-8.816 l 7.25,-14.744 c 0.196,-0.294 0.049,-0.539 -0.244,-0.539 z"
               style="fill:#ffffff;fill-opacity:1;fill-rule:nonzero;stroke:none"
               id="path542" />
          </g>
          <g
             id="g544"
             transform="translate(854.7997,167.935)">
            <path
               d="m 0,0 c 0,0.294 0.195,0.489 0.488,0.489 h 19.055 c 0.293,0 0.49,-0.195 0.49,-0.489 v -1.666 c 0,-0.294 -0.197,-0.489 -0.49,-0.489 H 3.086 c -0.197,0 -0.295,-0.098 -0.295,-0.294 v -11.854 c 0,-0.196 0.098,-0.294 0.295,-0.294 H 17.24 c 0.295,0 0.49,-0.195 0.49,-0.489 v -1.666 c 0,-0.294 -0.195,-0.489 -0.49,-0.489 H 3.086 c -0.197,0 -0.295,-0.099 -0.295,-0.294 v -12.344 c 0,-0.195 0.098,-0.294 0.295,-0.294 h 16.457 c 0.293,0 0.49,-0.195 0.49,-0.489 v -1.665 c 0,-0.294 -0.197,-0.49 -0.49,-0.49 H 0.488 c -0.293,0 -0.488,0.196 -0.488,0.49 z"
               style="fill:#ffffff;fill-opacity:1;fill-rule:nonzero;stroke:none"
               id="path546" />
          </g>
          <g
             id="g548"
             transform="translate(882.0341,167.935)">
            <path
               d="M 0,0 C 0,0.294 0.195,0.489 0.488,0.489 H 2.301 C 2.645,0.489 2.938,0.392 3.135,0 l 16.603,-27.381 h 0.147 V 0 c 0,0.294 0.197,0.489 0.49,0.489 h 1.812 c 0.293,0 0.491,-0.195 0.491,-0.489 v -32.327 c 0,-0.294 -0.198,-0.49 -0.491,-0.49 h -1.91 c -0.295,0 -0.588,0.097 -0.832,0.49 L 2.986,-4.898 H 2.791 v -27.429 c 0,-0.294 -0.195,-0.49 -0.49,-0.49 H 0.488 c -0.293,0 -0.488,0.196 -0.488,0.49 z"
               style="fill:#ffffff;fill-opacity:1;fill-rule:nonzero;stroke:none"
               id="path550" />
          </g>
          <g
             id="g552"
             transform="translate(917.0067,137.7621)">
            <path
               d="m 0,0 h 7.443 c 4.311,0 7.153,1.519 8.328,5.046 0.54,1.616 0.784,3.33 0.784,8.963 0,5.633 -0.244,7.347 -0.784,8.964 -1.175,3.526 -4.017,5.045 -8.328,5.045 H 0 c -0.197,0 -0.295,-0.098 -0.295,-0.294 V 0.294 C -0.295,0.099 -0.197,0 0,0 m -3.086,30.173 c 0,0.294 0.195,0.489 0.488,0.489 H 7.836 c 5.535,0 9.16,-2.204 10.629,-6.759 0.637,-1.96 0.93,-3.821 0.93,-9.894 0,-6.073 -0.293,-7.935 -0.93,-9.894 -1.469,-4.555 -5.094,-6.76 -10.629,-6.76 H -2.598 c -0.293,0 -0.488,0.197 -0.488,0.491 z"
               style="fill:#ffffff;fill-opacity:1;fill-rule:nonzero;stroke:none"
               id="path554" />
          </g>
          <g
             id="g556"
             transform="translate(944.2899,167.935)">
            <path
               d="m 0,0 c 0,0.294 0.195,0.489 0.49,0.489 h 1.813 c 0.293,0 0.49,-0.195 0.49,-0.489 v -32.327 c 0,-0.294 -0.197,-0.49 -0.49,-0.49 H 0.49 c -0.295,0 -0.49,0.196 -0.49,0.49 z"
               style="fill:#ffffff;fill-opacity:1;fill-rule:nonzero;stroke:none"
               id="path558" />
          </g>
          <g
             id="g560"
             transform="translate(956.2899,167.935)">
            <path
               d="M 0,0 C 0,0.294 0.195,0.489 0.49,0.489 H 2.352 C 2.693,0.489 2.939,0.343 3.086,0 L 13.91,-23.854 h 0.197 L 24.686,0 c 0.148,0.343 0.392,0.489 0.687,0.489 h 1.91 c 0.293,0 0.488,-0.195 0.488,-0.489 v -32.327 c 0,-0.294 -0.195,-0.49 -0.488,-0.49 h -1.812 c -0.295,0 -0.491,0.196 -0.491,0.49 V -6.27 h -0.146 l -9.602,-21.111 c -0.195,-0.391 -0.39,-0.538 -0.88,-0.538 h -0.981 c -0.439,0 -0.637,0.147 -0.832,0.538 L 2.939,-6.27 H 2.793 v -26.057 c 0,-0.294 -0.197,-0.49 -0.49,-0.49 H 0.49 c -0.295,0 -0.49,0.196 -0.49,0.49 z"
               style="fill:#ffffff;fill-opacity:1;fill-rule:nonzero;stroke:none"
               id="path562" />
          </g>
          <g
             id="g564"
             transform="translate(993.2723,167.935)">
            <path
               d="m 0,0 c 0,0.294 0.195,0.489 0.49,0.489 h 1.813 c 0.293,0 0.49,-0.195 0.49,-0.489 v -32.327 c 0,-0.294 -0.197,-0.49 -0.49,-0.49 H 0.49 c -0.295,0 -0.49,0.196 -0.49,0.49 z"
               style="fill:#ffffff;fill-opacity:1;fill-rule:nonzero;stroke:none"
               id="path566" />
          </g>
          <g
             id="g568"
             transform="translate(1005.2723,167.935)">
            <path
               d="m 0,0 c 0,0.294 0.195,0.489 0.49,0.489 h 19.053 c 0.295,0 0.49,-0.195 0.49,-0.489 v -1.666 c 0,-0.294 -0.195,-0.489 -0.49,-0.489 H 3.086 c -0.195,0 -0.293,-0.098 -0.293,-0.294 v -11.854 c 0,-0.196 0.098,-0.294 0.293,-0.294 h 14.156 c 0.293,0 0.488,-0.195 0.488,-0.489 v -1.666 c 0,-0.294 -0.195,-0.489 -0.488,-0.489 H 3.086 c -0.195,0 -0.293,-0.099 -0.293,-0.294 v -12.344 c 0,-0.195 0.098,-0.294 0.293,-0.294 h 16.457 c 0.295,0 0.49,-0.195 0.49,-0.489 v -1.665 c 0,-0.294 -0.195,-0.49 -0.49,-0.49 H 0.49 c -0.295,0 -0.49,0.196 -0.49,0.49 z"
               style="fill:#ffffff;fill-opacity:1;fill-rule:nonzero;stroke:none"
               id="path570" />
          </g>
          <g
             id="g572"
             transform="translate(1032.5087,167.935)">
            <path
               d="M 0,0 C 0,0.294 0.195,0.489 0.488,0.489 H 2.301 C 2.645,0.489 2.938,0.392 3.135,0 l 16.603,-27.381 h 0.147 V 0 c 0,0.294 0.197,0.489 0.49,0.489 h 1.812 c 0.293,0 0.491,-0.195 0.491,-0.489 v -32.327 c 0,-0.294 -0.198,-0.49 -0.491,-0.49 h -1.91 c -0.295,0 -0.588,0.097 -0.832,0.49 L 2.986,-4.898 H 2.791 v -27.429 c 0,-0.294 -0.195,-0.49 -0.49,-0.49 H 0.488 c -0.293,0 -0.488,0.196 -0.488,0.49 z"
               style="fill:#ffffff;fill-opacity:1;fill-rule:nonzero;stroke:none"
               id="path574" />
          </g>
          <g
             id="g576"
             transform="translate(1071.7411,135.1176)">
            <path
               d="m 0,0 c -0.293,0 -0.488,0.196 -0.488,0.49 v 29.878 c 0,0.196 -0.1,0.294 -0.295,0.294 h -9.6 c -0.295,0 -0.49,0.195 -0.49,0.489 v 1.666 c 0,0.294 0.195,0.49 0.49,0.49 h 22.58 c 0.293,0 0.491,-0.196 0.491,-0.49 v -1.666 c 0,-0.294 -0.198,-0.489 -0.491,-0.489 H 2.596 C 2.4,30.662 2.303,30.564 2.303,30.368 V 0.49 C 2.303,0.196 2.107,0 1.812,0 Z"
               style="fill:#ffffff;fill-opacity:1;fill-rule:nonzero;stroke:none"
               id="path578" />
          </g>
          <g
             id="g580"
             transform="translate(1107.3036,160.6362)">
            <path
               d="m 0,0 c -1.225,3.674 -3.918,5.633 -8.033,5.633 -4.164,0 -6.858,-1.959 -8.082,-5.633 -0.442,-1.322 -0.832,-3.478 -0.832,-8.865 0,-5.388 0.39,-7.543 0.832,-8.865 1.224,-3.674 3.918,-5.633 8.082,-5.633 4.115,0 6.808,1.959 8.033,5.633 0.441,1.322 0.832,3.477 0.832,8.865 C 0.832,-3.478 0.441,-1.322 0,0 m -18.809,-18.515 c -0.587,1.764 -0.98,3.919 -0.98,9.65 0,5.73 0.393,7.886 0.98,9.649 1.616,4.899 5.338,7.494 10.776,7.494 5.388,0 9.111,-2.595 10.726,-7.494 0.588,-1.763 0.981,-3.919 0.981,-9.649 0,-5.731 -0.393,-7.886 -0.981,-9.65 -1.615,-4.897 -5.338,-7.494 -10.726,-7.494 -5.438,0 -9.16,2.597 -10.776,7.494"
               style="fill:#ffffff;fill-opacity:1;fill-rule:nonzero;stroke:none"
               id="path582" />
          </g>
          <g
             id="g584"
             transform="translate(1130.8153,167.935)">
            <path
               d="m 0,0 c 0,0.294 0.195,0.489 0.49,0.489 h 19.053 c 0.295,0 0.49,-0.195 0.49,-0.489 v -1.666 c 0,-0.294 -0.195,-0.489 -0.49,-0.489 H 3.086 c -0.195,0 -0.293,-0.098 -0.293,-0.294 v -11.854 c 0,-0.196 0.098,-0.294 0.293,-0.294 h 14.156 c 0.293,0 0.488,-0.195 0.488,-0.489 v -1.666 c 0,-0.294 -0.195,-0.489 -0.488,-0.489 H 3.086 c -0.195,0 -0.293,-0.099 -0.293,-0.294 v -12.344 c 0,-0.195 0.098,-0.294 0.293,-0.294 h 16.457 c 0.295,0 0.49,-0.195 0.49,-0.489 v -1.665 c 0,-0.294 -0.195,-0.49 -0.49,-0.49 H 0.49 c -0.295,0 -0.49,0.196 -0.49,0.49 z"
               style="fill:#ffffff;fill-opacity:1;fill-rule:nonzero;stroke:none"
               id="path586" />
          </g>
          <g
             id="g588"
             transform="translate(1170.1005,167.935)">
            <path
               d="m 0,0 c 0,0.294 0.195,0.489 0.488,0.489 h 1.813 c 0.295,0 0.49,-0.195 0.49,-0.489 v -32.327 c 0,-0.294 -0.195,-0.49 -0.49,-0.49 H 0.488 c -0.293,0 -0.488,0.196 -0.488,0.49 z"
               style="fill:#ffffff;fill-opacity:1;fill-rule:nonzero;stroke:none"
               id="path590" />
          </g>
          <g
             id="g592"
             transform="translate(1182.1005,167.935)">
            <path
               d="M 0,0 C 0,0.294 0.195,0.489 0.488,0.489 H 2.301 C 2.645,0.489 2.938,0.392 3.135,0 l 16.603,-27.381 h 0.147 V 0 c 0,0.294 0.197,0.489 0.49,0.489 h 1.812 c 0.293,0 0.491,-0.195 0.491,-0.489 v -32.327 c 0,-0.294 -0.198,-0.49 -0.491,-0.49 h -1.91 c -0.295,0 -0.588,0.097 -0.832,0.49 L 2.986,-4.898 H 2.791 v -27.429 c 0,-0.294 -0.195,-0.49 -0.49,-0.49 H 0.488 c -0.293,0 -0.488,0.196 -0.488,0.49 z"
               style="fill:#ffffff;fill-opacity:1;fill-rule:nonzero;stroke:none"
               id="path594" />
          </g>
          <g
             id="g596"
             transform="translate(1213.9872,167.935)">
            <path
               d="M 0,0 C 0,0.294 0.195,0.489 0.49,0.489 H 2.303 C 2.645,0.489 2.939,0.392 3.135,0 L 19.74,-27.381 h 0.147 V 0 c 0,0.294 0.195,0.489 0.49,0.489 h 1.81 c 0.295,0 0.491,-0.195 0.491,-0.489 v -32.327 c 0,-0.294 -0.196,-0.49 -0.491,-0.49 h -1.91 c -0.293,0 -0.588,0.097 -0.832,0.49 L 2.988,-4.898 H 2.793 v -27.429 c 0,-0.294 -0.197,-0.49 -0.49,-0.49 H 0.49 c -0.295,0 -0.49,0.196 -0.49,0.49 z"
               style="fill:#ffffff;fill-opacity:1;fill-rule:nonzero;stroke:none"
               id="path598" />
          </g>
          <g
             id="g600"
             transform="translate(1264.243,160.6362)">
            <path
               d="m 0,0 c -1.225,3.674 -3.918,5.633 -8.033,5.633 -4.164,0 -6.858,-1.959 -8.082,-5.633 -0.442,-1.322 -0.832,-3.478 -0.832,-8.865 0,-5.388 0.39,-7.543 0.832,-8.865 1.224,-3.674 3.918,-5.633 8.082,-5.633 4.115,0 6.808,1.959 8.033,5.633 0.441,1.322 0.832,3.477 0.832,8.865 C 0.832,-3.478 0.441,-1.322 0,0 m -18.809,-18.515 c -0.587,1.764 -0.98,3.919 -0.98,9.65 0,5.73 0.393,7.886 0.98,9.649 1.616,4.899 5.338,7.494 10.776,7.494 5.388,0 9.111,-2.595 10.726,-7.494 0.588,-1.763 0.981,-3.919 0.981,-9.649 0,-5.731 -0.393,-7.886 -0.981,-9.65 -1.615,-4.897 -5.338,-7.494 -10.726,-7.494 -5.438,0 -9.16,2.597 -10.776,7.494"
               style="fill:#ffffff;fill-opacity:1;fill-rule:nonzero;stroke:none"
               id="path602" />
          </g>
          <g
             id="g604"
             transform="translate(1283.6395,135.1176)">
            <path
               d="m 0,0 c -0.293,0 -0.439,0.196 -0.539,0.49 l -11.02,32.131 c -0.195,0.441 0,0.686 0.342,0.686 h 1.715 c 0.441,0 0.588,-0.098 0.734,-0.49 L 0.883,4.653 H 0.98 l 9.405,28.164 c 0.146,0.392 0.293,0.49 0.685,0.49 h 1.764 c 0.342,0 0.539,-0.245 0.391,-0.686 L 2.254,0.49 C 2.156,0.196 1.959,0 1.666,0 Z"
               style="fill:#ffffff;fill-opacity:1;fill-rule:nonzero;stroke:none"
               id="path606" />
          </g>
          <g
             id="g608"
             transform="translate(1316.7528,146.4809)">
            <path
               d="M 0,0 -6.221,17.437 H -6.367 L -12.637,0 Z m -7.738,21.454 c 0.097,0.294 0.293,0.489 0.588,0.489 h 1.763 c 0.342,0 0.489,-0.195 0.586,-0.489 L 6.76,-10.873 c 0.097,-0.294 -0.049,-0.49 -0.344,-0.49 h -1.91 c -0.342,0 -0.539,0.097 -0.637,0.49 l -2.937,8.18 h -14.5 l -2.938,-8.18 c -0.146,-0.393 -0.344,-0.49 -0.637,-0.49 h -1.91 c -0.295,0 -0.441,0.196 -0.343,0.49 z"
               style="fill:#ffffff;fill-opacity:1;fill-rule:nonzero;stroke:none"
               id="path610" />
          </g>
          <g
             id="g612"
             transform="translate(1327.5302,151.7709)">
            <path
               d="m 0,0 c 0,5.829 0.344,8.033 0.883,9.698 1.664,4.996 5.289,7.446 10.531,7.446 4.555,0 8.129,-2.107 10.041,-6.172 0.098,-0.245 0.098,-0.49 -0.148,-0.637 L 19.691,9.552 c -0.246,-0.148 -0.49,-0.05 -0.636,0.195 -1.52,2.841 -3.869,4.751 -7.641,4.751 -4.066,0 -6.564,-1.91 -7.838,-5.534 C 3.135,7.642 2.842,5.584 2.842,0 c 0,-5.584 0.293,-7.641 0.734,-8.963 1.274,-3.625 3.772,-5.535 7.838,-5.535 3.772,0 6.121,1.91 7.641,4.751 0.146,0.245 0.39,0.343 0.636,0.196 l 1.616,-0.784 c 0.246,-0.146 0.246,-0.392 0.148,-0.637 -1.912,-4.065 -5.486,-6.172 -10.041,-6.172 -5.242,0 -8.867,2.45 -10.531,7.446 C 0.344,-8.032 0,-5.828 0,0"
               style="fill:#ffffff;fill-opacity:1;fill-rule:nonzero;stroke:none"
               id="path614" />
          </g>
          <g
             id="g616"
             transform="translate(1356.1864,167.935)">
            <path
               d="m 0,0 c 0,0.294 0.195,0.489 0.488,0.489 h 1.813 c 0.295,0 0.49,-0.195 0.49,-0.489 v -32.327 c 0,-0.294 -0.195,-0.49 -0.49,-0.49 H 0.488 c -0.293,0 -0.488,0.196 -0.488,0.49 z"
               style="fill:#ffffff;fill-opacity:1;fill-rule:nonzero;stroke:none"
               id="path618" />
          </g>
          <g
             id="g620"
             transform="translate(1377.0028,172.5385)">
            <path
               d="M 0,0 C -0.295,0 -0.441,0.196 -0.197,0.49 L 3.82,5.584 c 0.244,0.343 0.491,0.49 0.881,0.49 H 6.66 c 0.295,0 0.393,-0.245 0.197,-0.49 L 2.154,0.441 C 1.812,0.05 1.664,0 1.273,0 Z m 9.551,-11.902 c -1.225,3.673 -3.918,5.632 -8.033,5.632 -4.164,0 -6.858,-1.959 -8.082,-5.632 -0.442,-1.323 -0.832,-3.478 -0.832,-8.866 0,-5.387 0.39,-7.543 0.832,-8.865 1.224,-3.674 3.918,-5.633 8.082,-5.633 4.115,0 6.808,1.959 8.033,5.633 0.441,1.322 0.832,3.478 0.832,8.865 0,5.388 -0.391,7.543 -0.832,8.866 M -9.258,-30.417 c -0.588,1.764 -0.98,3.919 -0.98,9.649 0,5.731 0.392,7.886 0.98,9.65 1.615,4.898 5.338,7.494 10.776,7.494 5.388,0 9.111,-2.596 10.726,-7.494 0.588,-1.764 0.981,-3.919 0.981,-9.65 0,-5.73 -0.393,-7.885 -0.981,-9.649 -1.615,-4.897 -5.338,-7.494 -10.726,-7.494 -5.438,0 -9.161,2.597 -10.776,7.494"
               style="fill:#ffffff;fill-opacity:1;fill-rule:nonzero;stroke:none"
               id="path622" />
          </g>
          <g
             id="g624"
             transform="translate(1398.0165,167.935)">
            <path
               d="M 0,0 C 0,0.294 0.195,0.489 0.49,0.489 H 2.303 C 2.645,0.489 2.939,0.392 3.135,0 L 19.74,-27.381 h 0.147 V 0 c 0,0.294 0.195,0.489 0.49,0.489 h 1.81 c 0.295,0 0.491,-0.195 0.491,-0.489 v -32.327 c 0,-0.294 -0.196,-0.49 -0.491,-0.49 h -1.91 c -0.293,0 -0.588,0.097 -0.832,0.49 L 2.988,-4.898 H 2.793 v -27.429 c 0,-0.294 -0.197,-0.49 -0.49,-0.49 H 0.49 c -0.295,0 -0.49,0.196 -0.49,0.49 z"
               style="fill:#ffffff;fill-opacity:1;fill-rule:nonzero;stroke:none"
               id="path626" />
          </g>
        </g>
      </g>
    </g>
  </g>
</svg>
